%FSLAX33Y33*%
%MOMM*%
%ADD10C,0.508*%
%ADD11C,1.6*%
%ADD12C,2.5*%
%ADD13R,1.35X1.35*%
%ADD14C,1.35*%
%ADD15R,1.7X1.7*%
%ADD16C,1.7*%
%ADD17R,1.11X1.11*%
%ADD18C,1.11*%
D10*
%LNtop copper_traces*%
G01*
X6475Y28100D02*
X7135Y27440D01*
X1975Y12475D02*
X1975Y15115D01*
X8600Y9885D02*
X7390Y9885D01*
X17800Y3325D02*
X15325Y0850D01*
X15175Y3325D02*
X16175Y4325D01*
X21000Y5825D02*
X22925Y7750D01*
X2500Y10300D02*
X0900Y11900D01*
X6250Y23200D02*
X8283Y25233D01*
X7625Y11625D02*
X6400Y12850D01*
X15325Y0850D02*
X10675Y0850D01*
X12831Y18725D02*
X12831Y25906D01*
X20675Y3325D02*
X17800Y3325D01*
X7770Y5745D02*
X12295Y5745D01*
X2925Y11525D02*
X5750Y11525D01*
X23200Y10825D02*
X24200Y11825D01*
X0900Y11900D02*
X0900Y25800D01*
X7475Y11625D02*
X9125Y11625D01*
X21100Y13200D02*
X23525Y15625D01*
X8283Y25233D02*
X8283Y26428D01*
X4600Y2575D02*
X7770Y5745D01*
X12831Y3325D02*
X15175Y3325D01*
X21000Y10825D02*
X23200Y10825D01*
X10675Y0850D02*
X9260Y2265D01*
X6250Y19390D02*
X6250Y23075D01*
X3850Y25790D02*
X4510Y26450D01*
X2925Y11525D02*
X1975Y12475D01*
X23525Y15625D02*
X24200Y15625D01*
X3200Y28100D02*
X6475Y28100D01*
X9125Y11625D02*
X12465Y8285D01*
X1975Y15115D02*
X6250Y19390D01*
X22925Y7750D02*
X24100Y7750D01*
X8900Y20760D02*
X11215Y18445D01*
X7135Y27440D02*
X7135Y26775D01*
X3850Y21125D02*
X3850Y25790D01*
X11715Y10825D02*
X12465Y10825D01*
X0900Y25800D02*
X3200Y28100D01*
X9400Y13140D02*
X11715Y10825D01*
X6400Y12850D02*
X4240Y12850D01*
X16175Y4325D02*
X23700Y4325D01*
X3950Y10300D02*
X2500Y10300D01*
X11215Y18445D02*
X12831Y18445D01*
X7390Y9885D02*
X5750Y11525D01*
X14225Y27300D02*
X15050Y27300D01*
X12831Y25906D02*
X14225Y27300D01*
%LNtop copper component c7744e5600d26988*%
D11*
X3950Y13140D03*
X3950Y20760D03*
%LNtop copper component 4748f6f89c8109e0*%
D12*
X24400Y15900D03*
%LNtop copper component 984487acf14f2a04*%
X24400Y7975D03*
%LNtop copper component f9d875cb877cf273*%
D11*
X8900Y13140D03*
X8900Y20760D03*
%LNtop copper component 97c4d0802fb8fad4*%
D12*
X24400Y11925D03*
%LNtop copper component aaabee27c90a06a9*%
X24400Y4135D03*
%LNtop copper component 22fb0f4d1f771101*%
D11*
X9000Y2265D03*
X9000Y9885D03*
%LNtop copper component 5fb507646df7b499*%
D13*
X12831Y18445D03*
D14*
X12831Y15905D03*
X12831Y13365D03*
X12831Y10825D03*
X12831Y8285D03*
X12831Y5745D03*
X12831Y3205D03*
X20769Y3205D03*
X20769Y5745D03*
X20769Y8285D03*
X20769Y10825D03*
X20769Y13365D03*
X20769Y15905D03*
X20769Y18445D03*
%LNtop copper component 5b78421b79674273*%
D15*
X15225Y27300D03*
D16*
X18725Y27300D03*
%LNtop copper component d78364369f544818*%
D12*
X24400Y19775D03*
%LNtop copper component 51f36aee92305af8*%
D17*
X4595Y26550D03*
D18*
X5865Y26550D03*
X7135Y26550D03*
X8405Y26550D03*
%LNtop copper component df80b99157660698*%
D11*
X4075Y2265D03*
X4075Y9885D03*
M02*