%FSLAX33Y33*%
%MOMM*%
%ADD10C,0.15*%
%ADD11C,0.3*%
%ADD12C,3.21X2.91*%
%ADD13C,0.5*%
%ADD14C,3.21X2.91*%
%ADD15C,3.21X2.91*%
%ADD16C,3.21X2.91*%
%ADD17C,3.21X2.91*%
%ADD18C,6.05X5.75*%
D10*
%LNtop silkscreen_traces*%
%LNtop silkscreen component c7744e5600d26988*%
G01*
X5150Y13800D02*
X2750Y13800D01*
X2750Y20100*
X5150Y20100*
X5150Y13800*
X3950Y13800D02*
X3950Y14340D01*
X3950Y20100D02*
X3950Y19560D01*
D11*
X5080Y15375D02*
X2820Y15375D01*
G36*
X1955Y11919D02*
X1239Y11919D01*
X1239Y12236D01*
X1240Y12281D01*
X1244Y12320D01*
X1250Y12354D01*
X1258Y12382D01*
X1270Y12405D01*
X1285Y12426D01*
X1304Y12445D01*
X1326Y12461D01*
X1351Y12474D01*
X1378Y12483D01*
X1405Y12489D01*
X1434Y12491D01*
X1471Y12488D01*
X1504Y12479D01*
X1535Y12463D01*
X1563Y12442D01*
X1586Y12414D01*
X1605Y12379D01*
X1619Y12337D01*
X1624Y12314D01*
X1547Y12298D01*
X1541Y12319D01*
X1534Y12336D01*
X1524Y12351D01*
X1512Y12364D01*
X1498Y12374D01*
X1483Y12383D01*
X1467Y12388D01*
X1451Y12392D01*
X1434Y12393D01*
X1410Y12391D01*
X1388Y12384D01*
X1368Y12372D01*
X1351Y12356D01*
X1336Y12335D01*
X1326Y12309D01*
X1320Y12277D01*
X1318Y12240D01*
X1318Y12013D01*
X1555Y12013D01*
X1555Y12013D01*
X1555Y12217D01*
X1554Y12248D01*
X1551Y12275D01*
X1547Y12298D01*
X1624Y12314D01*
X1629Y12289D01*
X1638Y12307D01*
X1647Y12322D01*
X1656Y12335D01*
X1665Y12346D01*
X1685Y12367D01*
X1707Y12387D01*
X1732Y12406D01*
X1760Y12425D01*
X1955Y12549D01*
X1955Y12430D01*
X1806Y12336D01*
X1775Y12316D01*
X1749Y12298D01*
X1726Y12282D01*
X1707Y12267D01*
X1691Y12254D01*
X1678Y12242D01*
X1667Y12230D01*
X1659Y12219D01*
X1653Y12208D01*
X1648Y12198D01*
X1643Y12187D01*
X1640Y12176D01*
X1639Y12167D01*
X1638Y12155D01*
X1637Y12140D01*
X1637Y12123D01*
X1637Y12013D01*
X1955Y12013D01*
X1955Y11919D01*
X1955Y11919D01*
X1766Y12604D02*
X1754Y12692D01*
X1789Y12701D01*
X1818Y12713D01*
X1842Y12727D01*
X1862Y12744D01*
X1876Y12763D01*
X1886Y12784D01*
X1892Y12807D01*
X1895Y12832D01*
X1892Y12862D01*
X1884Y12889D01*
X1870Y12914D01*
X1852Y12937D01*
X1829Y12956D01*
X1803Y12969D01*
X1776Y12977D01*
X1745Y12980D01*
X1716Y12977D01*
X1690Y12970D01*
X1666Y12957D01*
X1645Y12940D01*
X1628Y12919D01*
X1616Y12895D01*
X1608Y12869D01*
X1606Y12840D01*
X1607Y12826D01*
X1608Y12812D01*
X1611Y12795D01*
X1616Y12778D01*
X1539Y12787D01*
X1539Y12791D01*
X1539Y12795D01*
X1540Y12799D01*
X1540Y12801D01*
X1538Y12829D01*
X1532Y12855D01*
X1523Y12879D01*
X1510Y12903D01*
X1494Y12922D01*
X1473Y12936D01*
X1448Y12945D01*
X1420Y12947D01*
X1397Y12945D01*
X1376Y12939D01*
X1357Y12929D01*
X1340Y12915D01*
X1326Y12897D01*
X1316Y12877D01*
X1310Y12855D01*
X1308Y12830D01*
X1310Y12806D01*
X1316Y12783D01*
X1326Y12763D01*
X1340Y12745D01*
X1358Y12729D01*
X1381Y12717D01*
X1407Y12707D01*
X1437Y12701D01*
X1421Y12613D01*
X1380Y12624D01*
X1343Y12639D01*
X1311Y12660D01*
X1284Y12686D01*
X1263Y12717D01*
X1248Y12750D01*
X1239Y12788D01*
X1236Y12828D01*
X1237Y12857D01*
X1242Y12885D01*
X1250Y12911D01*
X1261Y12936D01*
X1275Y12959D01*
X1291Y12980D01*
X1309Y12997D01*
X1330Y13012D01*
X1352Y13023D01*
X1374Y13031D01*
X1398Y13036D01*
X1422Y13038D01*
X1445Y13036D01*
X1466Y13032D01*
X1487Y13024D01*
X1506Y13013D01*
X1524Y12999D01*
X1541Y12982D01*
X1555Y12962D01*
X1567Y12939D01*
X1576Y12969D01*
X1589Y12996D01*
X1607Y13018D01*
X1628Y13038D01*
X1652Y13053D01*
X1680Y13064D01*
X1710Y13071D01*
X1743Y13073D01*
X1788Y13069D01*
X1830Y13056D01*
X1868Y13034D01*
X1902Y13005D01*
X1931Y12968D01*
X1951Y12927D01*
X1963Y12882D01*
X1967Y12832D01*
X1964Y12787D01*
X1953Y12745D01*
X1936Y12708D01*
X1911Y12675D01*
X1881Y12647D01*
X1847Y12626D01*
X1808Y12612D01*
X1766Y12604D01*
X1766Y12604D01*
G37*
%LNtop silkscreen component 4748f6f89c8109e0*%
D12*
X24400Y15900D03*
D13*
X22230Y15900D03*
%LNtop silkscreen component 984487acf14f2a04*%
D14*
X24400Y7975D03*
D13*
X22230Y7975D03*
%LNtop silkscreen component f9d875cb877cf273*%
D10*
X10100Y13800D02*
X7700Y13800D01*
X7700Y20100*
X10100Y20100*
X10100Y13800*
X8900Y13800D02*
X8900Y14340D01*
X8900Y20100D02*
X8900Y19560D01*
D11*
X10030Y15375D02*
X7770Y15375D01*
G36*
X6905Y11919D02*
X6189Y11919D01*
X6189Y12236D01*
X6190Y12281D01*
X6194Y12320D01*
X6200Y12354D01*
X6208Y12382D01*
X6220Y12405D01*
X6235Y12426D01*
X6254Y12445D01*
X6276Y12461D01*
X6301Y12474D01*
X6328Y12483D01*
X6355Y12489D01*
X6384Y12491D01*
X6421Y12488D01*
X6454Y12479D01*
X6485Y12463D01*
X6513Y12442D01*
X6536Y12414D01*
X6555Y12379D01*
X6569Y12337D01*
X6574Y12314D01*
X6497Y12298D01*
X6491Y12319D01*
X6484Y12336D01*
X6474Y12351D01*
X6462Y12364D01*
X6448Y12374D01*
X6433Y12383D01*
X6417Y12388D01*
X6401Y12392D01*
X6384Y12393D01*
X6360Y12391D01*
X6338Y12384D01*
X6318Y12372D01*
X6301Y12356D01*
X6286Y12335D01*
X6276Y12309D01*
X6270Y12277D01*
X6268Y12240D01*
X6268Y12013D01*
X6505Y12013D01*
X6505Y12013D01*
X6505Y12217D01*
X6504Y12248D01*
X6501Y12275D01*
X6497Y12298D01*
X6574Y12314D01*
X6579Y12289D01*
X6588Y12307D01*
X6597Y12322D01*
X6606Y12335D01*
X6615Y12346D01*
X6635Y12367D01*
X6657Y12387D01*
X6682Y12406D01*
X6710Y12425D01*
X6905Y12549D01*
X6905Y12430D01*
X6756Y12336D01*
X6725Y12316D01*
X6699Y12298D01*
X6676Y12282D01*
X6657Y12267D01*
X6641Y12254D01*
X6628Y12242D01*
X6617Y12230D01*
X6609Y12219D01*
X6603Y12208D01*
X6598Y12198D01*
X6593Y12187D01*
X6590Y12176D01*
X6589Y12167D01*
X6588Y12155D01*
X6587Y12140D01*
X6587Y12123D01*
X6587Y12013D01*
X6905Y12013D01*
X6905Y11919D01*
X6905Y11919D01*
X6905Y12885D02*
X6733Y12885D01*
X6733Y12575D01*
X6653Y12575D01*
X6291Y12830D01*
X6330Y12885D01*
X6653Y12661D01*
X6653Y12885D01*
X6653Y12885D01*
X6330Y12885D01*
X6291Y12830D01*
X6189Y12902D01*
X6189Y12973D01*
X6653Y12973D01*
X6653Y13070D01*
X6733Y13070D01*
X6733Y12973D01*
X6905Y12973D01*
X6905Y12885D01*
X6905Y12885D01*
G37*
%LNtop silkscreen component 97c4d0802fb8fad4*%
D15*
X24400Y11925D03*
D13*
X22230Y11925D03*
%LNtop silkscreen component aaabee27c90a06a9*%
D16*
X24400Y4135D03*
D13*
X22230Y4135D03*
%LNtop silkscreen component 22fb0f4d1f771101*%
D10*
X10200Y2925D02*
X7800Y2925D01*
X7800Y9225*
X10200Y9225*
X10200Y2925*
X9000Y2925D02*
X9000Y3465D01*
X9000Y9225D02*
X9000Y8685D01*
D11*
X10130Y4500D02*
X7870Y4500D01*
G36*
X7005Y1044D02*
X6289Y1044D01*
X6289Y1361D01*
X6290Y1406D01*
X6294Y1445D01*
X6300Y1479D01*
X6308Y1507D01*
X6320Y1530D01*
X6335Y1551D01*
X6354Y1570D01*
X6376Y1586D01*
X6401Y1599D01*
X6428Y1608D01*
X6455Y1614D01*
X6484Y1616D01*
X6521Y1613D01*
X6554Y1604D01*
X6585Y1588D01*
X6613Y1567D01*
X6636Y1539D01*
X6655Y1504D01*
X6669Y1462D01*
X6674Y1439D01*
X6597Y1423D01*
X6591Y1444D01*
X6584Y1461D01*
X6574Y1476D01*
X6562Y1489D01*
X6548Y1499D01*
X6533Y1508D01*
X6517Y1513D01*
X6501Y1517D01*
X6484Y1518D01*
X6460Y1516D01*
X6438Y1509D01*
X6418Y1497D01*
X6401Y1481D01*
X6386Y1460D01*
X6376Y1434D01*
X6370Y1402D01*
X6368Y1365D01*
X6368Y1138D01*
X6605Y1138D01*
X6605Y1138D01*
X6605Y1342D01*
X6604Y1373D01*
X6601Y1400D01*
X6597Y1423D01*
X6674Y1439D01*
X6679Y1414D01*
X6688Y1432D01*
X6697Y1447D01*
X6706Y1460D01*
X6715Y1471D01*
X6735Y1492D01*
X6757Y1512D01*
X6782Y1531D01*
X6810Y1550D01*
X7005Y1674D01*
X7005Y1555D01*
X6856Y1461D01*
X6825Y1441D01*
X6799Y1423D01*
X6776Y1407D01*
X6757Y1392D01*
X6741Y1379D01*
X6728Y1367D01*
X6717Y1355D01*
X6709Y1344D01*
X6703Y1333D01*
X6698Y1323D01*
X6693Y1312D01*
X6690Y1301D01*
X6689Y1292D01*
X6688Y1280D01*
X6687Y1265D01*
X6687Y1248D01*
X6687Y1138D01*
X7005Y1138D01*
X7005Y1044D01*
X7005Y1044D01*
X7005Y2060D02*
X7005Y1972D01*
X6445Y1972D01*
X6460Y1955D01*
X6475Y1935D01*
X6490Y1913D01*
X6505Y1889D01*
X6519Y1863D01*
X6532Y1840D01*
X6542Y1817D01*
X6550Y1796D01*
X6466Y1796D01*
X6447Y1832D01*
X6427Y1865D01*
X6405Y1896D01*
X6382Y1925D01*
X6357Y1951D01*
X6333Y1972D01*
X6309Y1990D01*
X6286Y2003D01*
X6286Y2060D01*
X7005Y2060D01*
X7005Y2060D01*
G37*
%LNtop silkscreen component 5fb507646df7b499*%
D10*
X14498Y20413D02*
X14498Y1236D01*
X19102Y1236*
X19102Y20413*
X17458Y20413*
X17458Y19913*
X16142Y19913*
X16142Y20413*
X14498Y20413*
D13*
X11581Y18445D03*
G36*
X12703Y21879D02*
X12798Y21879D01*
X12798Y21466D01*
X12796Y21415D01*
X12792Y21369D01*
X12784Y21329D01*
X12773Y21294D01*
X12759Y21264D01*
X12739Y21237D01*
X12715Y21212D01*
X12685Y21191D01*
X12651Y21174D01*
X12612Y21161D01*
X12567Y21154D01*
X12518Y21151D01*
X12470Y21153D01*
X12427Y21160D01*
X12388Y21171D01*
X12354Y21186D01*
X12324Y21205D01*
X12299Y21228D01*
X12278Y21255D01*
X12262Y21286D01*
X12250Y21322D01*
X12242Y21364D01*
X12237Y21412D01*
X12235Y21466D01*
X12235Y21879D01*
X12330Y21879D01*
X12330Y21466D01*
X12331Y21423D01*
X12334Y21385D01*
X12339Y21354D01*
X12347Y21329D01*
X12357Y21308D01*
X12370Y21290D01*
X12387Y21274D01*
X12406Y21261D01*
X12429Y21250D01*
X12453Y21243D01*
X12480Y21238D01*
X12510Y21237D01*
X12558Y21240D01*
X12599Y21249D01*
X12633Y21263D01*
X12659Y21284D01*
X12678Y21313D01*
X12692Y21353D01*
X12700Y21404D01*
X12703Y21466D01*
X12703Y21879D01*
X12703Y21879D01*
X13376Y21704D02*
X13289Y21697D01*
X13282Y21721D01*
X13274Y21742D01*
X13266Y21759D01*
X13255Y21772D01*
X13237Y21789D01*
X13216Y21801D01*
X13193Y21808D01*
X13167Y21810D01*
X13147Y21809D01*
X13128Y21804D01*
X13110Y21797D01*
X13094Y21787D01*
X13074Y21770D01*
X13057Y21749D01*
X13041Y21725D01*
X13028Y21698D01*
X13018Y21666D01*
X13010Y21628D01*
X13005Y21583D01*
X13003Y21533D01*
X13050Y21496D01*
X13040Y21484D01*
X13027Y21458D01*
X13020Y21428D01*
X13017Y21395D01*
X13017Y21395D01*
X13018Y21373D01*
X13022Y21351D01*
X13028Y21330D01*
X13036Y21309D01*
X13047Y21289D01*
X13060Y21272D01*
X13074Y21257D01*
X13090Y21245D01*
X13108Y21236D01*
X13126Y21229D01*
X13144Y21225D01*
X13163Y21224D01*
X13190Y21226D01*
X13215Y21235D01*
X13238Y21249D01*
X13259Y21268D01*
X13276Y21293D01*
X13289Y21321D01*
X13296Y21354D01*
X13299Y21391D01*
X13296Y21426D01*
X13289Y21457D01*
X13277Y21484D01*
X13259Y21507D01*
X13238Y21526D01*
X13215Y21540D01*
X13188Y21548D01*
X13160Y21550D01*
X13131Y21548D01*
X13105Y21540D01*
X13080Y21526D01*
X13059Y21507D01*
X13050Y21496D01*
X13003Y21533D01*
X13020Y21555D01*
X13039Y21575D01*
X13059Y21591D01*
X13081Y21604D01*
X13104Y21615D01*
X13128Y21622D01*
X13152Y21626D01*
X13177Y21628D01*
X13220Y21624D01*
X13259Y21612D01*
X13294Y21591D01*
X13327Y21563D01*
X13354Y21528D01*
X13373Y21489D01*
X13385Y21445D01*
X13389Y21396D01*
X13387Y21363D01*
X13381Y21331D01*
X13372Y21300D01*
X13360Y21271D01*
X13344Y21243D01*
X13325Y21220D01*
X13304Y21199D01*
X13280Y21182D01*
X13254Y21169D01*
X13226Y21159D01*
X13196Y21153D01*
X13165Y21151D01*
X13112Y21156D01*
X13065Y21171D01*
X13023Y21197D01*
X12985Y21232D01*
X12955Y21279D01*
X12933Y21339D01*
X12920Y21412D01*
X12916Y21498D01*
X12921Y21595D01*
X12935Y21678D01*
X12959Y21746D01*
X12993Y21800D01*
X13029Y21836D01*
X13071Y21862D01*
X13119Y21877D01*
X13173Y21882D01*
X13213Y21879D01*
X13250Y21870D01*
X13282Y21856D01*
X13311Y21835D01*
X13336Y21809D01*
X13354Y21778D01*
X13368Y21744D01*
X13376Y21704D01*
X13376Y21704D01*
G37*
%LNtop silkscreen component 5b78421b79674273*%
D10*
X13225Y21600D02*
X13225Y31600D01*
X20725Y31600*
X20725Y21600*
X13225Y21600*
D13*
X12700Y27300D03*
G36*
X20904Y29603D02*
X20989Y29615D01*
X20992Y29577D01*
X20999Y29546D01*
X21008Y29521D01*
X21020Y29503D01*
X21035Y29489D01*
X21053Y29480D01*
X21073Y29474D01*
X21096Y29472D01*
X21113Y29473D01*
X21129Y29476D01*
X21144Y29481D01*
X21157Y29489D01*
X21169Y29498D01*
X21179Y29508D01*
X21187Y29520D01*
X21193Y29533D01*
X21197Y29549D01*
X21200Y29569D01*
X21202Y29594D01*
X21203Y29623D01*
X21203Y30116D01*
X21297Y30116D01*
X21297Y29628D01*
X21296Y29586D01*
X21292Y29548D01*
X21285Y29516D01*
X21276Y29489D01*
X21263Y29466D01*
X21248Y29445D01*
X21229Y29428D01*
X21207Y29414D01*
X21182Y29402D01*
X21156Y29394D01*
X21127Y29389D01*
X21096Y29388D01*
X21052Y29391D01*
X21013Y29401D01*
X20980Y29418D01*
X20952Y29442D01*
X20930Y29472D01*
X20915Y29509D01*
X20906Y29553D01*
X20904Y29603D01*
X20904Y29603D01*
X21748Y29400D02*
X21660Y29400D01*
X21660Y29960D01*
X21643Y29945D01*
X21623Y29930D01*
X21601Y29915D01*
X21576Y29900D01*
X21551Y29885D01*
X21528Y29873D01*
X21505Y29863D01*
X21484Y29854D01*
X21484Y29939D01*
X21520Y29957D01*
X21553Y29977D01*
X21584Y29999D01*
X21613Y30023D01*
X21638Y30048D01*
X21660Y30072D01*
X21677Y30095D01*
X21691Y30119D01*
X21748Y30119D01*
X21748Y29400D01*
X21748Y29400D01*
G37*
%LNtop silkscreen component d78364369f544818*%
D17*
X24400Y19775D03*
D13*
X22230Y19775D03*
%LNtop silkscreen component 51f36aee92305af8*%
D18*
X6500Y26550D03*
D13*
X2975Y26530D03*
G36*
X9177Y23250D02*
X9177Y23966D01*
X9422Y23966D01*
X9422Y23881D01*
X9272Y23881D01*
X9272Y23334D01*
X9272Y23334D01*
X9425Y23334D01*
X9458Y23335D01*
X9488Y23338D01*
X9514Y23342D01*
X9536Y23348D01*
X9555Y23355D01*
X9572Y23364D01*
X9587Y23373D01*
X9600Y23385D01*
X9616Y23403D01*
X9630Y23424D01*
X9642Y23448D01*
X9652Y23475D01*
X9661Y23505D01*
X9667Y23538D01*
X9670Y23574D01*
X9671Y23613D01*
X9669Y23666D01*
X9662Y23713D01*
X9651Y23752D01*
X9634Y23786D01*
X9615Y23814D01*
X9594Y23836D01*
X9570Y23854D01*
X9545Y23867D01*
X9523Y23873D01*
X9495Y23878D01*
X9462Y23880D01*
X9422Y23881D01*
X9422Y23966D01*
X9424Y23966D01*
X9463Y23965D01*
X9497Y23963D01*
X9527Y23960D01*
X9551Y23956D01*
X9581Y23947D01*
X9608Y23936D01*
X9633Y23921D01*
X9656Y23904D01*
X9683Y23879D01*
X9706Y23850D01*
X9725Y23818D01*
X9741Y23782D01*
X9753Y23743D01*
X9762Y23702D01*
X9767Y23658D01*
X9769Y23612D01*
X9768Y23572D01*
X9764Y23535D01*
X9758Y23500D01*
X9750Y23467D01*
X9740Y23437D01*
X9728Y23410D01*
X9715Y23385D01*
X9701Y23363D01*
X9686Y23344D01*
X9670Y23326D01*
X9653Y23311D01*
X9636Y23298D01*
X9617Y23287D01*
X9597Y23277D01*
X9575Y23269D01*
X9550Y23262D01*
X9524Y23257D01*
X9497Y23253D01*
X9467Y23251D01*
X9435Y23250D01*
X9177Y23250D01*
X9177Y23250D01*
X10195Y23250D02*
X10107Y23250D01*
X10107Y23810D01*
X10090Y23795D01*
X10070Y23780D01*
X10048Y23765D01*
X10024Y23750D01*
X9998Y23735D01*
X9975Y23723D01*
X9952Y23713D01*
X9931Y23704D01*
X9931Y23789D01*
X9967Y23807D01*
X10000Y23827D01*
X10031Y23849D01*
X10060Y23873D01*
X10086Y23898D01*
X10107Y23922D01*
X10125Y23945D01*
X10138Y23969D01*
X10195Y23969D01*
X10195Y23250D01*
X10195Y23250D01*
G37*
%LNtop silkscreen component df80b99157660698*%
D10*
X5275Y2925D02*
X2875Y2925D01*
X2875Y9225*
X5275Y9225*
X5275Y2925*
X4075Y2925D02*
X4075Y3465D01*
X4075Y9225D02*
X4075Y8685D01*
D11*
X5205Y4500D02*
X2945Y4500D01*
G36*
X2080Y1044D02*
X1364Y1044D01*
X1364Y1361D01*
X1365Y1406D01*
X1369Y1445D01*
X1375Y1479D01*
X1383Y1507D01*
X1395Y1530D01*
X1410Y1551D01*
X1429Y1570D01*
X1451Y1586D01*
X1476Y1599D01*
X1503Y1608D01*
X1530Y1614D01*
X1559Y1616D01*
X1596Y1613D01*
X1629Y1604D01*
X1660Y1588D01*
X1688Y1567D01*
X1711Y1539D01*
X1730Y1504D01*
X1744Y1462D01*
X1749Y1439D01*
X1672Y1423D01*
X1666Y1444D01*
X1659Y1461D01*
X1649Y1476D01*
X1637Y1489D01*
X1623Y1499D01*
X1608Y1508D01*
X1592Y1513D01*
X1576Y1517D01*
X1559Y1518D01*
X1535Y1516D01*
X1513Y1509D01*
X1493Y1497D01*
X1476Y1481D01*
X1461Y1460D01*
X1451Y1434D01*
X1445Y1402D01*
X1443Y1365D01*
X1443Y1138D01*
X1680Y1138D01*
X1680Y1138D01*
X1680Y1342D01*
X1679Y1373D01*
X1676Y1400D01*
X1672Y1423D01*
X1749Y1439D01*
X1754Y1414D01*
X1763Y1432D01*
X1772Y1447D01*
X1781Y1460D01*
X1790Y1471D01*
X1810Y1492D01*
X1832Y1512D01*
X1857Y1531D01*
X1885Y1550D01*
X2080Y1674D01*
X2080Y1555D01*
X1931Y1461D01*
X1900Y1441D01*
X1874Y1423D01*
X1851Y1407D01*
X1832Y1392D01*
X1816Y1379D01*
X1803Y1367D01*
X1792Y1355D01*
X1784Y1344D01*
X1778Y1333D01*
X1773Y1323D01*
X1768Y1312D01*
X1765Y1301D01*
X1764Y1292D01*
X1763Y1280D01*
X1762Y1265D01*
X1762Y1248D01*
X1762Y1138D01*
X2080Y1138D01*
X2080Y1044D01*
X2080Y1044D01*
X1995Y2191D02*
X2080Y2191D01*
X2080Y1717D01*
X2064Y1718D01*
X2048Y1720D01*
X2033Y1723D01*
X2019Y1728D01*
X1994Y1738D01*
X1971Y1751D01*
X1947Y1767D01*
X1923Y1786D01*
X1899Y1808D01*
X1873Y1834D01*
X1845Y1865D01*
X1815Y1901D01*
X1770Y1954D01*
X1729Y1998D01*
X1694Y2033D01*
X1663Y2058D01*
X1636Y2076D01*
X1609Y2089D01*
X1583Y2097D01*
X1558Y2099D01*
X1533Y2097D01*
X1509Y2090D01*
X1488Y2078D01*
X1469Y2062D01*
X1454Y2042D01*
X1443Y2019D01*
X1436Y1993D01*
X1434Y1965D01*
X1436Y1934D01*
X1443Y1907D01*
X1455Y1884D01*
X1472Y1863D01*
X1493Y1846D01*
X1517Y1834D01*
X1545Y1827D01*
X1577Y1824D01*
X1568Y1734D01*
X1520Y1742D01*
X1479Y1756D01*
X1443Y1777D01*
X1414Y1804D01*
X1391Y1837D01*
X1374Y1875D01*
X1364Y1918D01*
X1361Y1966D01*
X1364Y2015D01*
X1375Y2059D01*
X1393Y2097D01*
X1418Y2130D01*
X1448Y2156D01*
X1482Y2175D01*
X1519Y2186D01*
X1560Y2190D01*
X1581Y2189D01*
X1602Y2185D01*
X1623Y2180D01*
X1644Y2172D01*
X1665Y2162D01*
X1687Y2149D01*
X1709Y2133D01*
X1731Y2114D01*
X1757Y2090D01*
X1786Y2059D01*
X1820Y2022D01*
X1857Y1978D01*
X1888Y1942D01*
X1913Y1913D01*
X1933Y1891D01*
X1948Y1877D01*
X1959Y1866D01*
X1971Y1856D01*
X1983Y1847D01*
X1995Y1840D01*
X1995Y2191D01*
X1995Y2191D01*
G37*
%LNtext*%
G36*
X24000Y24125D02*
X23091Y24125D01*
X23091Y24528D01*
X23092Y24585D01*
X23097Y24635D01*
X23105Y24677D01*
X23115Y24713D01*
X23130Y24743D01*
X23149Y24770D01*
X23173Y24793D01*
X23202Y24814D01*
X23234Y24830D01*
X23267Y24842D01*
X23302Y24849D01*
X23339Y24852D01*
X23385Y24848D01*
X23428Y24836D01*
X23467Y24816D01*
X23502Y24789D01*
X23532Y24753D01*
X23556Y24709D01*
X23574Y24657D01*
X23580Y24626D01*
X23483Y24607D01*
X23475Y24633D01*
X23465Y24655D01*
X23453Y24674D01*
X23438Y24690D01*
X23421Y24703D01*
X23401Y24714D01*
X23381Y24722D01*
X23361Y24726D01*
X23339Y24728D01*
X23308Y24725D01*
X23280Y24716D01*
X23255Y24701D01*
X23233Y24681D01*
X23215Y24654D01*
X23202Y24620D01*
X23194Y24580D01*
X23191Y24533D01*
X23191Y24245D01*
X23492Y24245D01*
X23492Y24245D01*
X23492Y24504D01*
X23491Y24543D01*
X23488Y24577D01*
X23483Y24607D01*
X23580Y24626D01*
X23586Y24596D01*
X23598Y24618D01*
X23609Y24638D01*
X23620Y24654D01*
X23632Y24668D01*
X23657Y24694D01*
X23686Y24719D01*
X23718Y24744D01*
X23753Y24768D01*
X24000Y24926D01*
X24000Y24775D01*
X23811Y24654D01*
X23772Y24629D01*
X23739Y24606D01*
X23710Y24586D01*
X23686Y24568D01*
X23666Y24551D01*
X23649Y24535D01*
X23635Y24520D01*
X23625Y24507D01*
X23617Y24493D01*
X23610Y24479D01*
X23605Y24466D01*
X23601Y24452D01*
X23599Y24440D01*
X23597Y24425D01*
X23597Y24406D01*
X23596Y24385D01*
X23596Y24245D01*
X24000Y24245D01*
X24000Y24125D01*
X24000Y24125D01*
X23643Y25466D02*
X23537Y25466D01*
X23536Y25851D01*
X23873Y25851D01*
X23907Y25806D01*
X23935Y25761D01*
X23960Y25714D01*
X23980Y25668D01*
X23995Y25620D01*
X24007Y25572D01*
X24013Y25524D01*
X24016Y25474D01*
X24012Y25409D01*
X24001Y25346D01*
X23983Y25287D01*
X23958Y25231D01*
X23926Y25179D01*
X23888Y25135D01*
X23843Y25097D01*
X23792Y25066D01*
X23736Y25041D01*
X23677Y25024D01*
X23615Y25013D01*
X23550Y25010D01*
X23485Y25013D01*
X23422Y25024D01*
X23361Y25041D01*
X23302Y25065D01*
X23248Y25096D01*
X23202Y25133D01*
X23163Y25176D01*
X23131Y25225D01*
X23107Y25279D01*
X23089Y25337D01*
X23079Y25399D01*
X23075Y25465D01*
X23077Y25513D01*
X23083Y25559D01*
X23093Y25602D01*
X23107Y25643D01*
X23125Y25681D01*
X23146Y25714D01*
X23169Y25743D01*
X23196Y25768D01*
X23227Y25789D01*
X23262Y25808D01*
X23301Y25824D01*
X23345Y25837D01*
X23375Y25728D01*
X23342Y25718D01*
X23313Y25706D01*
X23287Y25692D01*
X23266Y25678D01*
X23247Y25661D01*
X23230Y25641D01*
X23215Y25617D01*
X23202Y25591D01*
X23192Y25562D01*
X23184Y25531D01*
X23180Y25499D01*
X23178Y25466D01*
X23180Y25426D01*
X23185Y25389D01*
X23192Y25354D01*
X23203Y25323D01*
X23217Y25294D01*
X23233Y25269D01*
X23250Y25246D01*
X23270Y25226D01*
X23290Y25208D01*
X23312Y25193D01*
X23335Y25180D01*
X23359Y25169D01*
X23402Y25153D01*
X23447Y25142D01*
X23494Y25136D01*
X23542Y25134D01*
X23601Y25136D01*
X23654Y25144D01*
X23702Y25157D01*
X23746Y25176D01*
X23784Y25199D01*
X23817Y25227D01*
X23845Y25260D01*
X23867Y25297D01*
X23885Y25338D01*
X23897Y25380D01*
X23905Y25423D01*
X23907Y25467D01*
X23905Y25506D01*
X23899Y25545D01*
X23890Y25583D01*
X23877Y25620D01*
X23862Y25655D01*
X23846Y25685D01*
X23830Y25711D01*
X23813Y25733D01*
X23643Y25733D01*
X23643Y25466D01*
X23643Y25466D01*
X24000Y26023D02*
X23091Y26023D01*
X23091Y26364D01*
X23093Y26414D01*
X23098Y26458D01*
X23106Y26497D01*
X23119Y26531D01*
X23134Y26561D01*
X23154Y26587D01*
X23177Y26610D01*
X23203Y26630D01*
X23232Y26645D01*
X23262Y26657D01*
X23292Y26663D01*
X23323Y26665D01*
X23352Y26664D01*
X23380Y26658D01*
X23407Y26648D01*
X23433Y26634D01*
X23458Y26616D01*
X23480Y26594D01*
X23499Y26568D01*
X23516Y26538D01*
X23602Y26503D01*
X23595Y26487D01*
X23589Y26461D01*
X23584Y26430D01*
X23581Y26394D01*
X23580Y26354D01*
X23580Y26143D01*
X23893Y26143D01*
X23893Y26143D01*
X23893Y26370D01*
X23892Y26397D01*
X23892Y26419D01*
X23890Y26438D01*
X23888Y26452D01*
X23884Y26471D01*
X23878Y26490D01*
X23872Y26506D01*
X23864Y26521D01*
X23854Y26534D01*
X23842Y26546D01*
X23829Y26557D01*
X23813Y26567D01*
X23796Y26575D01*
X23777Y26580D01*
X23758Y26584D01*
X23736Y26585D01*
X23712Y26583D01*
X23689Y26578D01*
X23668Y26570D01*
X23648Y26559D01*
X23631Y26545D01*
X23616Y26528D01*
X23604Y26508D01*
X23602Y26503D01*
X23516Y26538D01*
X23444Y26495D01*
X23432Y26511D01*
X23417Y26524D01*
X23400Y26534D01*
X23381Y26541D01*
X23361Y26546D01*
X23338Y26547D01*
X23316Y26546D01*
X23295Y26542D01*
X23276Y26535D01*
X23258Y26525D01*
X23242Y26513D01*
X23229Y26499D01*
X23219Y26482D01*
X23211Y26463D01*
X23205Y26440D01*
X23201Y26409D01*
X23199Y26370D01*
X23198Y26325D01*
X23198Y26143D01*
X23473Y26143D01*
X23473Y26143D01*
X23473Y26340D01*
X23472Y26377D01*
X23470Y26409D01*
X23467Y26434D01*
X23462Y26455D01*
X23454Y26476D01*
X23444Y26495D01*
X23516Y26538D01*
X23531Y26577D01*
X23549Y26611D01*
X23572Y26641D01*
X23599Y26665D01*
X23629Y26685D01*
X23662Y26698D01*
X23698Y26707D01*
X23736Y26710D01*
X23768Y26708D01*
X23798Y26703D01*
X23827Y26694D01*
X23855Y26683D01*
X23881Y26668D01*
X23904Y26652D01*
X23923Y26635D01*
X23940Y26616D01*
X23954Y26595D01*
X23966Y26571D01*
X23976Y26545D01*
X23985Y26516D01*
X23991Y26485D01*
X23996Y26450D01*
X23999Y26411D01*
X24000Y26370D01*
X24000Y26023D01*
X24000Y26023D01*
X24000Y27223D02*
X23091Y27223D01*
X23091Y27343D01*
X23893Y27343D01*
X23893Y27791D01*
X24000Y27791D01*
X24000Y27223D01*
X24000Y27223D01*
X24000Y27937D02*
X23091Y27937D01*
X23091Y28594D01*
X23198Y28594D01*
X23198Y28057D01*
X23477Y28057D01*
X23477Y28560D01*
X23583Y28560D01*
X23583Y28057D01*
X23893Y28057D01*
X23893Y28615D01*
X24000Y28615D01*
X24000Y27937D01*
X24000Y27937D01*
X24000Y28781D02*
X23091Y28781D01*
X23091Y29093D01*
X23198Y29093D01*
X23198Y28902D01*
X23893Y28902D01*
X23893Y28902D01*
X23893Y29096D01*
X23892Y29138D01*
X23889Y29176D01*
X23883Y29209D01*
X23876Y29237D01*
X23867Y29261D01*
X23856Y29283D01*
X23843Y29302D01*
X23829Y29318D01*
X23806Y29339D01*
X23779Y29356D01*
X23748Y29372D01*
X23714Y29385D01*
X23676Y29396D01*
X23634Y29403D01*
X23588Y29407D01*
X23539Y29409D01*
X23471Y29406D01*
X23413Y29397D01*
X23362Y29383D01*
X23319Y29362D01*
X23284Y29337D01*
X23255Y29310D01*
X23233Y29281D01*
X23217Y29248D01*
X23209Y29220D01*
X23203Y29185D01*
X23199Y29143D01*
X23198Y29093D01*
X23091Y29093D01*
X23091Y29095D01*
X23092Y29144D01*
X23094Y29188D01*
X23098Y29225D01*
X23104Y29256D01*
X23115Y29294D01*
X23129Y29329D01*
X23147Y29361D01*
X23169Y29390D01*
X23202Y29423D01*
X23238Y29453D01*
X23279Y29477D01*
X23324Y29497D01*
X23373Y29513D01*
X23426Y29524D01*
X23481Y29531D01*
X23540Y29533D01*
X23591Y29531D01*
X23638Y29527D01*
X23683Y29519D01*
X23724Y29509D01*
X23762Y29496D01*
X23797Y29481D01*
X23829Y29465D01*
X23856Y29447D01*
X23881Y29427D01*
X23903Y29407D01*
X23922Y29386D01*
X23939Y29364D01*
X23953Y29340D01*
X23965Y29314D01*
X23976Y29286D01*
X23984Y29255D01*
X23991Y29222D01*
X23996Y29187D01*
X23999Y29149D01*
X24000Y29109D01*
X24000Y28781D01*
X24000Y28781D01*
X6919Y7712D02*
X6835Y7712D01*
X6835Y8015D01*
X7100Y8015D01*
X7126Y7980D01*
X7149Y7944D01*
X7168Y7908D01*
X7184Y7871D01*
X7196Y7834D01*
X7205Y7796D01*
X7210Y7758D01*
X7212Y7719D01*
X7209Y7667D01*
X7201Y7618D01*
X7187Y7572D01*
X7167Y7527D01*
X7142Y7487D01*
X7112Y7452D01*
X7077Y7422D01*
X7036Y7397D01*
X6992Y7378D01*
X6946Y7364D01*
X6897Y7356D01*
X6846Y7353D01*
X6794Y7356D01*
X6744Y7364D01*
X6697Y7378D01*
X6650Y7397D01*
X6608Y7421D01*
X6572Y7450D01*
X6541Y7484D01*
X6516Y7523D01*
X6497Y7565D01*
X6483Y7611D01*
X6475Y7660D01*
X6472Y7712D01*
X6474Y7750D01*
X6478Y7786D01*
X6486Y7820D01*
X6497Y7852D01*
X6511Y7882D01*
X6527Y7908D01*
X6546Y7931D01*
X6567Y7950D01*
X6591Y7967D01*
X6619Y7982D01*
X6650Y7994D01*
X6684Y8005D01*
X6708Y7919D01*
X6682Y7911D01*
X6659Y7901D01*
X6639Y7891D01*
X6622Y7879D01*
X6607Y7866D01*
X6594Y7850D01*
X6582Y7832D01*
X6572Y7811D01*
X6564Y7788D01*
X6558Y7764D01*
X6554Y7739D01*
X6553Y7712D01*
X6554Y7681D01*
X6558Y7652D01*
X6564Y7625D01*
X6573Y7600D01*
X6583Y7577D01*
X6596Y7557D01*
X6609Y7539D01*
X6625Y7523D01*
X6641Y7510D01*
X6659Y7498D01*
X6677Y7487D01*
X6696Y7478D01*
X6730Y7466D01*
X6765Y7458D01*
X6802Y7453D01*
X6840Y7451D01*
X6886Y7453D01*
X6928Y7459D01*
X6966Y7469D01*
X7000Y7484D01*
X7030Y7502D01*
X7056Y7524D01*
X7078Y7550D01*
X7096Y7580D01*
X7109Y7612D01*
X7119Y7645D01*
X7125Y7679D01*
X7127Y7714D01*
X7125Y7744D01*
X7121Y7774D01*
X7113Y7804D01*
X7103Y7834D01*
X7091Y7861D01*
X7079Y7885D01*
X7066Y7906D01*
X7053Y7923D01*
X6919Y7923D01*
X6919Y7712D01*
X6919Y7712D01*
X7200Y8156D02*
X6484Y8156D01*
X6484Y8474D01*
X6485Y8519D01*
X6489Y8558D01*
X6495Y8592D01*
X6503Y8619D01*
X6515Y8643D01*
X6530Y8664D01*
X6549Y8683D01*
X6572Y8699D01*
X6597Y8712D01*
X6623Y8721D01*
X6651Y8727D01*
X6679Y8729D01*
X6716Y8726D01*
X6750Y8716D01*
X6780Y8701D01*
X6808Y8679D01*
X6832Y8651D01*
X6851Y8617D01*
X6865Y8575D01*
X6870Y8551D01*
X6793Y8536D01*
X6787Y8556D01*
X6779Y8574D01*
X6769Y8589D01*
X6757Y8601D01*
X6744Y8612D01*
X6729Y8620D01*
X6713Y8626D01*
X6697Y8630D01*
X6679Y8631D01*
X6655Y8629D01*
X6633Y8622D01*
X6613Y8610D01*
X6596Y8594D01*
X6582Y8573D01*
X6571Y8547D01*
X6565Y8515D01*
X6563Y8478D01*
X6563Y8251D01*
X6800Y8251D01*
X6800Y8251D01*
X6800Y8455D01*
X6799Y8486D01*
X6797Y8513D01*
X6793Y8536D01*
X6870Y8551D01*
X6874Y8527D01*
X6883Y8545D01*
X6892Y8560D01*
X6901Y8573D01*
X6910Y8584D01*
X6930Y8605D01*
X6953Y8625D01*
X6978Y8644D01*
X7005Y8663D01*
X7200Y8787D01*
X7200Y8668D01*
X7051Y8573D01*
X7021Y8554D01*
X6994Y8536D01*
X6971Y8519D01*
X6952Y8505D01*
X6937Y8492D01*
X6923Y8480D01*
X6913Y8468D01*
X6905Y8457D01*
X6898Y8446D01*
X6893Y8436D01*
X6889Y8425D01*
X6886Y8414D01*
X6884Y8404D01*
X6883Y8393D01*
X6882Y8378D01*
X6882Y8361D01*
X6882Y8251D01*
X7200Y8251D01*
X7200Y8156D01*
X7200Y8156D01*
X7200Y8879D02*
X6484Y8879D01*
X6484Y9397D01*
X6569Y9397D01*
X6569Y8974D01*
X6788Y8974D01*
X6788Y9370D01*
X6872Y9370D01*
X6872Y8974D01*
X7116Y8974D01*
X7116Y9413D01*
X7200Y9413D01*
X7200Y8879D01*
X7200Y8879D01*
X7200Y9546D02*
X6484Y9546D01*
X6484Y10064D01*
X6569Y10064D01*
X6569Y9641D01*
X6788Y9641D01*
X6788Y10037D01*
X6872Y10037D01*
X6872Y9641D01*
X7116Y9641D01*
X7116Y10080D01*
X7200Y10080D01*
X7200Y9546D01*
X7200Y9546D01*
X7200Y10210D02*
X6484Y10210D01*
X6484Y10307D01*
X7046Y10683D01*
X6484Y10683D01*
X6484Y10774D01*
X7200Y10774D01*
X7200Y10677D01*
X6638Y10301D01*
X7200Y10301D01*
X7200Y10210D01*
X7200Y10210D01*
X7050Y14354D02*
X6334Y14354D01*
X6334Y14671D01*
X6335Y14716D01*
X6339Y14755D01*
X6345Y14789D01*
X6353Y14817D01*
X6365Y14840D01*
X6380Y14861D01*
X6399Y14880D01*
X6422Y14896D01*
X6447Y14909D01*
X6473Y14918D01*
X6501Y14924D01*
X6529Y14926D01*
X6566Y14923D01*
X6600Y14914D01*
X6630Y14898D01*
X6658Y14877D01*
X6682Y14849D01*
X6701Y14814D01*
X6715Y14772D01*
X6720Y14749D01*
X6643Y14733D01*
X6637Y14754D01*
X6629Y14771D01*
X6619Y14786D01*
X6607Y14799D01*
X6594Y14809D01*
X6579Y14818D01*
X6563Y14823D01*
X6547Y14827D01*
X6529Y14828D01*
X6505Y14826D01*
X6483Y14819D01*
X6463Y14807D01*
X6446Y14791D01*
X6432Y14770D01*
X6421Y14744D01*
X6415Y14712D01*
X6413Y14675D01*
X6413Y14448D01*
X6650Y14448D01*
X6650Y14448D01*
X6650Y14652D01*
X6649Y14683D01*
X6647Y14710D01*
X6643Y14733D01*
X6720Y14749D01*
X6724Y14724D01*
X6733Y14742D01*
X6742Y14757D01*
X6751Y14770D01*
X6760Y14781D01*
X6780Y14802D01*
X6803Y14822D01*
X6828Y14841D01*
X6855Y14860D01*
X7050Y14984D01*
X7050Y14865D01*
X6901Y14771D01*
X6871Y14751D01*
X6844Y14733D01*
X6821Y14717D01*
X6802Y14702D01*
X6787Y14689D01*
X6773Y14677D01*
X6763Y14665D01*
X6755Y14654D01*
X6748Y14643D01*
X6743Y14633D01*
X6739Y14622D01*
X6736Y14611D01*
X6734Y14602D01*
X6733Y14590D01*
X6732Y14575D01*
X6732Y14558D01*
X6732Y14448D01*
X7050Y14448D01*
X7050Y14354D01*
X7050Y14354D01*
X7050Y15076D02*
X6334Y15076D01*
X6334Y15594D01*
X6419Y15594D01*
X6419Y15171D01*
X6638Y15171D01*
X6638Y15567D01*
X6722Y15567D01*
X6722Y15171D01*
X6966Y15171D01*
X6966Y15610D01*
X7050Y15610D01*
X7050Y15076D01*
X7050Y15076D01*
X6820Y15709D02*
X6812Y15798D01*
X6838Y15803D01*
X6861Y15809D01*
X6882Y15817D01*
X6900Y15828D01*
X6917Y15841D01*
X6931Y15858D01*
X6945Y15877D01*
X6956Y15900D01*
X6965Y15925D01*
X6972Y15952D01*
X6976Y15980D01*
X6977Y16010D01*
X6976Y16036D01*
X6973Y16061D01*
X6968Y16084D01*
X6961Y16106D01*
X6952Y16125D01*
X6942Y16142D01*
X6930Y16156D01*
X6917Y16167D01*
X6903Y16176D01*
X6888Y16183D01*
X6872Y16186D01*
X6856Y16188D01*
X6839Y16186D01*
X6824Y16183D01*
X6810Y16177D01*
X6797Y16168D01*
X6785Y16157D01*
X6774Y16142D01*
X6764Y16125D01*
X6755Y16104D01*
X6748Y16085D01*
X6740Y16057D01*
X6731Y16021D01*
X6720Y15976D01*
X6708Y15931D01*
X6697Y15892D01*
X6686Y15861D01*
X6675Y15838D01*
X6661Y15814D01*
X6645Y15793D01*
X6627Y15776D01*
X6608Y15762D01*
X6588Y15751D01*
X6566Y15743D01*
X6543Y15738D01*
X6519Y15736D01*
X6493Y15738D01*
X6467Y15744D01*
X6442Y15754D01*
X6418Y15767D01*
X6396Y15784D01*
X6376Y15805D01*
X6360Y15829D01*
X6346Y15857D01*
X6336Y15887D01*
X6328Y15919D01*
X6323Y15953D01*
X6322Y15988D01*
X6324Y16027D01*
X6328Y16063D01*
X6336Y16097D01*
X6348Y16129D01*
X6362Y16157D01*
X6379Y16183D01*
X6400Y16204D01*
X6423Y16222D01*
X6449Y16237D01*
X6476Y16247D01*
X6505Y16254D01*
X6536Y16257D01*
X6543Y16167D01*
X6511Y16161D01*
X6483Y16151D01*
X6460Y16136D01*
X6440Y16117D01*
X6425Y16093D01*
X6414Y16065D01*
X6408Y16031D01*
X6405Y15992D01*
X6407Y15952D01*
X6413Y15918D01*
X6423Y15890D01*
X6437Y15867D01*
X6454Y15850D01*
X6472Y15838D01*
X6491Y15830D01*
X6513Y15828D01*
X6531Y15829D01*
X6548Y15835D01*
X6563Y15843D01*
X6576Y15856D01*
X6589Y15875D01*
X6602Y15905D01*
X6614Y15946D01*
X6627Y15998D01*
X6640Y16052D01*
X6652Y16096D01*
X6663Y16131D01*
X6673Y16157D01*
X6688Y16186D01*
X6706Y16211D01*
X6725Y16232D01*
X6746Y16249D01*
X6769Y16262D01*
X6794Y16271D01*
X6820Y16277D01*
X6848Y16279D01*
X6876Y16277D01*
X6903Y16271D01*
X6930Y16261D01*
X6956Y16246D01*
X6979Y16228D01*
X7000Y16206D01*
X7019Y16181D01*
X7034Y16152D01*
X7046Y16121D01*
X7055Y16087D01*
X7060Y16052D01*
X7062Y16014D01*
X7060Y15968D01*
X7055Y15925D01*
X7046Y15886D01*
X7034Y15851D01*
X7018Y15820D01*
X6998Y15793D01*
X6975Y15769D01*
X6949Y15748D01*
X6919Y15732D01*
X6888Y15720D01*
X6855Y15712D01*
X6820Y15709D01*
X6820Y15709D01*
X7050Y16410D02*
X6334Y16410D01*
X6334Y16928D01*
X6419Y16928D01*
X6419Y16505D01*
X6638Y16505D01*
X6638Y16901D01*
X6722Y16901D01*
X6722Y16505D01*
X6966Y16505D01*
X6966Y16944D01*
X7050Y16944D01*
X7050Y16410D01*
X7050Y16410D01*
X7050Y17257D02*
X6419Y17257D01*
X6419Y17022D01*
X6334Y17022D01*
X6334Y17589D01*
X6419Y17589D01*
X6419Y17352D01*
X7050Y17352D01*
X7050Y17257D01*
X7050Y17257D01*
X7050Y17946D02*
X6334Y17946D01*
X6334Y18216D01*
X6335Y18249D01*
X6336Y18279D01*
X6338Y18304D01*
X6341Y18325D01*
X6346Y18350D01*
X6354Y18373D01*
X6363Y18394D01*
X6374Y18413D01*
X6388Y18430D01*
X6404Y18445D01*
X6423Y18459D01*
X6444Y18471D01*
X6466Y18480D01*
X6490Y18487D01*
X6515Y18491D01*
X6541Y18492D01*
X6585Y18489D01*
X6626Y18478D01*
X6662Y18460D01*
X6696Y18434D01*
X6723Y18399D01*
X6743Y18353D01*
X6755Y18294D01*
X6756Y18273D01*
X6672Y18268D01*
X6666Y18304D01*
X6655Y18333D01*
X6640Y18356D01*
X6622Y18373D01*
X6599Y18385D01*
X6573Y18392D01*
X6544Y18395D01*
X6522Y18393D01*
X6502Y18389D01*
X6484Y18382D01*
X6467Y18372D01*
X6453Y18360D01*
X6441Y18346D01*
X6431Y18330D01*
X6425Y18312D01*
X6422Y18298D01*
X6420Y18278D01*
X6419Y18253D01*
X6419Y18224D01*
X6419Y18041D01*
X6675Y18041D01*
X6675Y18041D01*
X6675Y18226D01*
X6672Y18268D01*
X6756Y18273D01*
X6759Y18224D01*
X6759Y18041D01*
X7050Y18041D01*
X7050Y17946D01*
X7050Y17946D01*
X6334Y19083D02*
X6334Y19177D01*
X6748Y19177D01*
X6799Y19176D01*
X6845Y19171D01*
X6885Y19164D01*
X6919Y19153D01*
X6949Y19138D01*
X6977Y19119D01*
X7001Y19094D01*
X7022Y19065D01*
X7040Y19031D01*
X7052Y18991D01*
X7060Y18947D01*
X7062Y18898D01*
X7060Y18850D01*
X7054Y18806D01*
X7043Y18767D01*
X7028Y18733D01*
X7008Y18703D01*
X6985Y18678D01*
X6958Y18658D01*
X6927Y18642D01*
X6891Y18630D01*
X6849Y18621D01*
X6802Y18616D01*
X6748Y18614D01*
X6334Y18614D01*
X6334Y18709D01*
X6747Y18709D01*
X6791Y18710D01*
X6828Y18713D01*
X6860Y18719D01*
X6885Y18726D01*
X6906Y18737D01*
X6924Y18750D01*
X6940Y18766D01*
X6953Y18786D01*
X6963Y18808D01*
X6971Y18833D01*
X6975Y18860D01*
X6977Y18889D01*
X6974Y18938D01*
X6965Y18979D01*
X6950Y19012D01*
X6929Y19038D01*
X6900Y19058D01*
X6860Y19072D01*
X6809Y19080D01*
X6747Y19083D01*
X6334Y19083D01*
X6334Y19083D01*
X7050Y19331D02*
X6334Y19331D01*
X6334Y19426D01*
X6966Y19426D01*
X6966Y19778D01*
X7050Y19778D01*
X7050Y19331D01*
X7050Y19331D01*
X7050Y19887D02*
X6334Y19887D01*
X6334Y19982D01*
X6966Y19982D01*
X6966Y20335D01*
X7050Y20335D01*
X7050Y19887D01*
X7050Y19887D01*
X6334Y20917D02*
X6334Y21012D01*
X6748Y21012D01*
X6799Y21010D01*
X6845Y21006D01*
X6885Y20998D01*
X6919Y20987D01*
X6949Y20973D01*
X6977Y20953D01*
X7001Y20929D01*
X7022Y20899D01*
X7040Y20865D01*
X7052Y20826D01*
X7060Y20781D01*
X7062Y20732D01*
X7060Y20684D01*
X7054Y20641D01*
X7043Y20602D01*
X7028Y20568D01*
X7008Y20538D01*
X6985Y20513D01*
X6958Y20492D01*
X6927Y20476D01*
X6891Y20464D01*
X6849Y20456D01*
X6802Y20451D01*
X6748Y20449D01*
X6334Y20449D01*
X6334Y20544D01*
X6747Y20544D01*
X6791Y20545D01*
X6828Y20548D01*
X6860Y20553D01*
X6885Y20561D01*
X6906Y20571D01*
X6924Y20585D01*
X6940Y20601D01*
X6953Y20621D01*
X6963Y20643D01*
X6971Y20667D01*
X6975Y20694D01*
X6977Y20724D01*
X6974Y20772D01*
X6965Y20813D01*
X6950Y20847D01*
X6929Y20873D01*
X6900Y20892D01*
X6860Y20906D01*
X6809Y20914D01*
X6747Y20917D01*
X6334Y20917D01*
X6334Y20917D01*
X7050Y21170D02*
X6334Y21170D01*
X6334Y21440D01*
X6335Y21473D01*
X6336Y21503D01*
X6338Y21528D01*
X6341Y21549D01*
X6346Y21574D01*
X6354Y21597D01*
X6363Y21618D01*
X6374Y21637D01*
X6388Y21654D01*
X6404Y21669D01*
X6423Y21683D01*
X6444Y21694D01*
X6466Y21704D01*
X6490Y21711D01*
X6515Y21715D01*
X6541Y21716D01*
X6585Y21712D01*
X6626Y21701D01*
X6662Y21683D01*
X6696Y21658D01*
X6723Y21623D01*
X6743Y21576D01*
X6755Y21518D01*
X6756Y21497D01*
X6672Y21492D01*
X6666Y21528D01*
X6655Y21557D01*
X6640Y21580D01*
X6622Y21597D01*
X6599Y21609D01*
X6573Y21616D01*
X6544Y21618D01*
X6522Y21617D01*
X6502Y21613D01*
X6484Y21606D01*
X6467Y21596D01*
X6453Y21583D01*
X6441Y21569D01*
X6431Y21553D01*
X6425Y21536D01*
X6422Y21521D01*
X6420Y21502D01*
X6419Y21477D01*
X6419Y21447D01*
X6419Y21264D01*
X6675Y21264D01*
X6675Y21264D01*
X6675Y21449D01*
X6672Y21492D01*
X6756Y21497D01*
X6759Y21448D01*
X6759Y21264D01*
X7050Y21264D01*
X7050Y21170D01*
X7050Y21170D01*
X0857Y30479D02*
X0971Y30489D01*
X0976Y30456D01*
X0984Y30427D01*
X0995Y30400D01*
X1008Y30377D01*
X1025Y30356D01*
X1046Y30337D01*
X1071Y30321D01*
X1100Y30306D01*
X1131Y30294D01*
X1165Y30286D01*
X1201Y30281D01*
X1239Y30279D01*
X1272Y30280D01*
X1304Y30284D01*
X1333Y30291D01*
X1361Y30300D01*
X1385Y30311D01*
X1407Y30324D01*
X1424Y30339D01*
X1439Y30356D01*
X1450Y30374D01*
X1458Y30393D01*
X1463Y30413D01*
X1465Y30433D01*
X1463Y30454D01*
X1459Y30474D01*
X1451Y30492D01*
X1440Y30508D01*
X1426Y30524D01*
X1407Y30538D01*
X1385Y30550D01*
X1358Y30562D01*
X1334Y30570D01*
X1299Y30580D01*
X1253Y30592D01*
X1196Y30606D01*
X1138Y30621D01*
X1090Y30635D01*
X1051Y30649D01*
X1021Y30663D01*
X0990Y30681D01*
X0964Y30701D01*
X0942Y30723D01*
X0924Y30748D01*
X0910Y30774D01*
X0900Y30801D01*
X0894Y30830D01*
X0892Y30861D01*
X0894Y30895D01*
X0902Y30927D01*
X0914Y30959D01*
X0931Y30989D01*
X0953Y31018D01*
X0979Y31042D01*
X1010Y31063D01*
X1045Y31080D01*
X1084Y31094D01*
X1124Y31104D01*
X1167Y31109D01*
X1212Y31111D01*
X1261Y31109D01*
X1307Y31103D01*
X1350Y31093D01*
X1390Y31079D01*
X1426Y31061D01*
X1458Y31038D01*
X1486Y31013D01*
X1509Y30983D01*
X1527Y30950D01*
X1541Y30915D01*
X1549Y30879D01*
X1553Y30840D01*
X1438Y30831D01*
X1431Y30871D01*
X1418Y30907D01*
X1399Y30937D01*
X1375Y30961D01*
X1345Y30980D01*
X1309Y30994D01*
X1266Y31002D01*
X1217Y31005D01*
X1166Y31003D01*
X1122Y30995D01*
X1086Y30983D01*
X1058Y30965D01*
X1036Y30944D01*
X1020Y30921D01*
X1011Y30896D01*
X1008Y30869D01*
X1010Y30845D01*
X1017Y30824D01*
X1028Y30805D01*
X1043Y30788D01*
X1067Y30772D01*
X1106Y30756D01*
X1158Y30740D01*
X1224Y30723D01*
X1292Y30707D01*
X1348Y30692D01*
X1393Y30678D01*
X1426Y30665D01*
X1463Y30646D01*
X1495Y30624D01*
X1521Y30600D01*
X1543Y30573D01*
X1559Y30544D01*
X1571Y30512D01*
X1578Y30479D01*
X1581Y30443D01*
X1578Y30408D01*
X1570Y30373D01*
X1557Y30339D01*
X1539Y30307D01*
X1516Y30276D01*
X1489Y30250D01*
X1456Y30226D01*
X1420Y30207D01*
X1380Y30191D01*
X1337Y30180D01*
X1292Y30173D01*
X1245Y30171D01*
X1185Y30173D01*
X1131Y30180D01*
X1082Y30191D01*
X1038Y30207D01*
X0998Y30227D01*
X0963Y30252D01*
X0933Y30281D01*
X0907Y30315D01*
X0886Y30353D01*
X0871Y30392D01*
X0861Y30434D01*
X0857Y30479D01*
X0857Y30479D01*
X1741Y30187D02*
X1741Y31096D01*
X1922Y31096D01*
X2138Y30452D01*
X2151Y30410D01*
X2163Y30373D01*
X2173Y30343D01*
X2181Y30318D01*
X2190Y30345D01*
X2201Y30379D01*
X2214Y30418D01*
X2229Y30463D01*
X2447Y31096D01*
X2609Y31096D01*
X2609Y30187D01*
X2493Y30187D01*
X2493Y30948D01*
X2229Y30187D01*
X2120Y30187D01*
X1857Y30961D01*
X1857Y30187D01*
X1741Y30187D01*
X1741Y30187D01*
X2803Y30187D02*
X2803Y31096D01*
X3146Y31096D01*
X3189Y31095D01*
X3226Y31094D01*
X3258Y31091D01*
X3284Y31087D01*
X3316Y31080D01*
X3346Y31071D01*
X3372Y31059D01*
X3396Y31045D01*
X3418Y31027D01*
X3437Y31007D01*
X3454Y30983D01*
X3469Y30957D01*
X3481Y30928D01*
X3490Y30898D01*
X3495Y30866D01*
X3497Y30833D01*
X3492Y30777D01*
X3478Y30726D01*
X3455Y30679D01*
X3423Y30637D01*
X3379Y30601D01*
X3320Y30576D01*
X3245Y30561D01*
X3218Y30560D01*
X3212Y30666D01*
X3258Y30674D01*
X3295Y30688D01*
X3324Y30707D01*
X3345Y30731D01*
X3361Y30759D01*
X3370Y30792D01*
X3373Y30829D01*
X3371Y30857D01*
X3366Y30882D01*
X3357Y30905D01*
X3344Y30927D01*
X3329Y30945D01*
X3311Y30960D01*
X3291Y30972D01*
X3268Y30980D01*
X3250Y30984D01*
X3225Y30986D01*
X3194Y30988D01*
X3156Y30988D01*
X2923Y30988D01*
X2923Y30664D01*
X2923Y30664D01*
X3158Y30664D01*
X3212Y30666D01*
X3218Y30560D01*
X3156Y30556D01*
X2923Y30556D01*
X2923Y30187D01*
X2803Y30187D01*
X2803Y30187D01*
X4002Y30187D02*
X4002Y31096D01*
X4125Y31096D01*
X4603Y30382D01*
X4603Y31096D01*
X4718Y31096D01*
X4718Y30187D01*
X4595Y30187D01*
X4117Y30901D01*
X4117Y30187D01*
X4002Y30187D01*
X4002Y30187D01*
X4864Y30516D02*
X4871Y30601D01*
X4890Y30675D01*
X4922Y30737D01*
X4966Y30787D01*
X5011Y30819D01*
X5060Y30842D01*
X5114Y30856D01*
X5173Y30860D01*
X5238Y30855D01*
X5297Y30838D01*
X5349Y30810D01*
X5395Y30771D01*
X5433Y30722D01*
X5460Y30665D01*
X5476Y30599D01*
X5481Y30525D01*
X5479Y30465D01*
X5472Y30412D01*
X5460Y30365D01*
X5443Y30325D01*
X5422Y30291D01*
X5396Y30261D01*
X5366Y30234D01*
X5332Y30212D01*
X5295Y30194D01*
X5256Y30182D01*
X5215Y30174D01*
X5173Y30172D01*
X5165Y30172D01*
X5173Y30264D01*
X5213Y30268D01*
X5249Y30279D01*
X5282Y30299D01*
X5311Y30327D01*
X5336Y30363D01*
X5353Y30407D01*
X5363Y30459D01*
X5367Y30520D01*
X5363Y30577D01*
X5353Y30627D01*
X5335Y30670D01*
X5311Y30705D01*
X5282Y30732D01*
X5249Y30752D01*
X5213Y30764D01*
X5173Y30768D01*
X5133Y30764D01*
X5097Y30752D01*
X5064Y30732D01*
X5034Y30705D01*
X5010Y30670D01*
X4993Y30626D01*
X4982Y30575D01*
X4979Y30516D01*
X4979Y30516D01*
X4982Y30457D01*
X4993Y30405D01*
X5010Y30362D01*
X5034Y30327D01*
X5064Y30299D01*
X5097Y30279D01*
X5133Y30267D01*
X5173Y30264D01*
X5165Y30172D01*
X5107Y30177D01*
X5048Y30194D01*
X4996Y30222D01*
X4950Y30260D01*
X4912Y30310D01*
X4886Y30369D01*
X4870Y30437D01*
X4864Y30516D01*
X4864Y30516D01*
X5795Y30187D02*
X5545Y30845D01*
X5662Y30845D01*
X5804Y30451D01*
X5815Y30419D01*
X5826Y30386D01*
X5836Y30352D01*
X5846Y30318D01*
X5854Y30345D01*
X5864Y30375D01*
X5875Y30408D01*
X5888Y30443D01*
X6034Y30845D01*
X6149Y30845D01*
X5899Y30187D01*
X5795Y30187D01*
X5795Y30187D01*
X7156Y30294D02*
X7156Y30187D01*
X6555Y30187D01*
X6555Y30207D01*
X6557Y30226D01*
X6562Y30245D01*
X6568Y30264D01*
X6581Y30295D01*
X6598Y30325D01*
X6618Y30355D01*
X6641Y30385D01*
X6669Y30416D01*
X6703Y30449D01*
X6742Y30485D01*
X6787Y30523D01*
X6855Y30580D01*
X6912Y30632D01*
X6956Y30677D01*
X6988Y30715D01*
X7010Y30750D01*
X7027Y30784D01*
X7036Y30817D01*
X7040Y30850D01*
X7037Y30881D01*
X7028Y30911D01*
X7013Y30937D01*
X6992Y30962D01*
X6967Y30981D01*
X6938Y30996D01*
X6905Y31004D01*
X6869Y31007D01*
X6830Y31004D01*
X6796Y30995D01*
X6766Y30980D01*
X6740Y30959D01*
X6718Y30932D01*
X6703Y30901D01*
X6694Y30865D01*
X6691Y30825D01*
X6576Y30837D01*
X6586Y30897D01*
X6604Y30950D01*
X6630Y30995D01*
X6665Y31032D01*
X6706Y31062D01*
X6755Y31083D01*
X6810Y31095D01*
X6871Y31099D01*
X6933Y31095D01*
X6988Y31081D01*
X7037Y31059D01*
X7078Y31027D01*
X7112Y30988D01*
X7135Y30946D01*
X7150Y30899D01*
X7154Y30847D01*
X7153Y30820D01*
X7149Y30793D01*
X7142Y30766D01*
X7132Y30740D01*
X7119Y30713D01*
X7102Y30686D01*
X7082Y30658D01*
X7058Y30629D01*
X7028Y30597D01*
X6989Y30560D01*
X6942Y30517D01*
X6886Y30469D01*
X6840Y30430D01*
X6803Y30398D01*
X6776Y30373D01*
X6757Y30354D01*
X6743Y30339D01*
X6731Y30324D01*
X6720Y30309D01*
X6710Y30294D01*
X7156Y30294D01*
X7156Y30294D01*
X7275Y30635D02*
X7277Y30712D01*
X7284Y30781D01*
X7294Y30841D01*
X7309Y30895D01*
X7327Y30941D01*
X7350Y30982D01*
X7376Y31017D01*
X7407Y31046D01*
X7442Y31069D01*
X7481Y31086D01*
X7524Y31096D01*
X7572Y31099D01*
X7607Y31098D01*
X7640Y31092D01*
X7671Y31083D01*
X7700Y31070D01*
X7727Y31054D01*
X7751Y31034D01*
X7772Y31011D01*
X7791Y30985D01*
X7808Y30956D01*
X7823Y30924D01*
X7837Y30888D01*
X7848Y30850D01*
X7857Y30807D01*
X7863Y30756D01*
X7867Y30699D01*
X7868Y30635D01*
X7866Y30559D01*
X7860Y30490D01*
X7850Y30430D01*
X7835Y30377D01*
X7817Y30330D01*
X7794Y30290D01*
X7768Y30254D01*
X7737Y30225D01*
X7702Y30201D01*
X7663Y30185D01*
X7620Y30175D01*
X7572Y30171D01*
X7563Y30172D01*
X7572Y30263D01*
X7609Y30268D01*
X7643Y30282D01*
X7673Y30305D01*
X7701Y30337D01*
X7724Y30384D01*
X7740Y30449D01*
X7750Y30533D01*
X7753Y30635D01*
X7750Y30738D01*
X7740Y30822D01*
X7724Y30887D01*
X7701Y30933D01*
X7673Y30966D01*
X7642Y30989D01*
X7608Y31002D01*
X7571Y31007D01*
X7534Y31003D01*
X7501Y30991D01*
X7473Y30970D01*
X7448Y30942D01*
X7423Y30892D01*
X7405Y30824D01*
X7394Y30738D01*
X7390Y30635D01*
X7390Y30635D01*
X7393Y30532D01*
X7403Y30449D01*
X7420Y30383D01*
X7442Y30337D01*
X7470Y30305D01*
X7501Y30281D01*
X7535Y30268D01*
X7572Y30263D01*
X7563Y30172D01*
X7510Y30177D01*
X7454Y30195D01*
X7406Y30224D01*
X7365Y30265D01*
X7326Y30331D01*
X7298Y30415D01*
X7281Y30516D01*
X7275Y30635D01*
X7275Y30635D01*
X8402Y30187D02*
X8291Y30187D01*
X8291Y30898D01*
X8269Y30879D01*
X8244Y30859D01*
X8216Y30840D01*
X8185Y30821D01*
X8153Y30803D01*
X8123Y30787D01*
X8094Y30774D01*
X8067Y30763D01*
X8067Y30871D01*
X8113Y30894D01*
X8155Y30920D01*
X8194Y30948D01*
X8231Y30978D01*
X8263Y31009D01*
X8291Y31040D01*
X8313Y31070D01*
X8330Y31099D01*
X8402Y31099D01*
X8402Y30187D01*
X8402Y30187D01*
X8695Y30977D02*
X8695Y31084D01*
X9284Y31084D01*
X9284Y30997D01*
X9241Y30947D01*
X9198Y30890D01*
X9155Y30824D01*
X9112Y30752D01*
X9072Y30674D01*
X9036Y30596D01*
X9006Y30517D01*
X8980Y30437D01*
X8965Y30378D01*
X8953Y30317D01*
X8943Y30253D01*
X8937Y30187D01*
X8823Y30187D01*
X8826Y30243D01*
X8834Y30305D01*
X8847Y30373D01*
X8865Y30446D01*
X8887Y30521D01*
X8914Y30595D01*
X8945Y30668D01*
X8980Y30739D01*
X9019Y30807D01*
X9058Y30869D01*
X9099Y30926D01*
X9141Y30977D01*
X8695Y30977D01*
X8695Y30977D01*
X9794Y30187D02*
X9794Y31096D01*
X10197Y31096D01*
X10255Y31094D01*
X10304Y31090D01*
X10347Y31082D01*
X10382Y31071D01*
X10412Y31057D01*
X10439Y31037D01*
X10463Y31013D01*
X10483Y30985D01*
X10500Y30953D01*
X10512Y30919D01*
X10519Y30884D01*
X10521Y30848D01*
X10517Y30801D01*
X10505Y30759D01*
X10486Y30720D01*
X10458Y30685D01*
X10423Y30654D01*
X10379Y30630D01*
X10326Y30612D01*
X10296Y30606D01*
X10277Y30704D01*
X10302Y30712D01*
X10324Y30721D01*
X10343Y30734D01*
X10359Y30749D01*
X10373Y30766D01*
X10383Y30785D01*
X10391Y30805D01*
X10396Y30826D01*
X10397Y30848D01*
X10394Y30879D01*
X10385Y30906D01*
X10371Y30932D01*
X10350Y30954D01*
X10323Y30972D01*
X10290Y30985D01*
X10249Y30993D01*
X10202Y30995D01*
X9915Y30995D01*
X9915Y30695D01*
X9915Y30695D01*
X10173Y30695D01*
X10212Y30696D01*
X10247Y30699D01*
X10277Y30704D01*
X10296Y30606D01*
X10265Y30600D01*
X10287Y30589D01*
X10307Y30577D01*
X10324Y30566D01*
X10338Y30555D01*
X10364Y30529D01*
X10389Y30501D01*
X10413Y30469D01*
X10437Y30434D01*
X10595Y30187D01*
X10444Y30187D01*
X10324Y30376D01*
X10299Y30414D01*
X10276Y30448D01*
X10255Y30477D01*
X10237Y30501D01*
X10220Y30521D01*
X10205Y30538D01*
X10190Y30552D01*
X10176Y30562D01*
X10162Y30570D01*
X10149Y30577D01*
X10135Y30582D01*
X10121Y30586D01*
X10109Y30588D01*
X10094Y30589D01*
X10076Y30590D01*
X10054Y30590D01*
X9915Y30590D01*
X9915Y30187D01*
X9794Y30187D01*
X9794Y30187D01*
X11085Y30187D02*
X10973Y30187D01*
X10973Y30898D01*
X10951Y30879D01*
X10927Y30859D01*
X10899Y30840D01*
X10867Y30821D01*
X10836Y30803D01*
X10805Y30787D01*
X10777Y30774D01*
X10750Y30763D01*
X10750Y30871D01*
X10795Y30894D01*
X10838Y30920D01*
X10877Y30948D01*
X10914Y30978D01*
X10946Y31009D01*
X10973Y31040D01*
X10996Y31070D01*
X11013Y31099D01*
X11085Y31099D01*
X11085Y30187D01*
X11085Y30187D01*
X22002Y13450D02*
X22002Y14166D01*
X22272Y14166D01*
X22306Y14165D01*
X22335Y14164D01*
X22360Y14162D01*
X22381Y14159D01*
X22406Y14154D01*
X22430Y14146D01*
X22451Y14137D01*
X22469Y14126D01*
X22486Y14112D01*
X22502Y14096D01*
X22515Y14077D01*
X22527Y14056D01*
X22536Y14034D01*
X22543Y14010D01*
X22547Y13985D01*
X22549Y13959D01*
X22545Y13915D01*
X22534Y13874D01*
X22516Y13838D01*
X22490Y13804D01*
X22456Y13777D01*
X22409Y13757D01*
X22351Y13745D01*
X22329Y13744D01*
X22325Y13828D01*
X22360Y13834D01*
X22390Y13845D01*
X22412Y13860D01*
X22429Y13878D01*
X22441Y13901D01*
X22448Y13927D01*
X22451Y13956D01*
X22449Y13978D01*
X22445Y13998D01*
X22438Y14016D01*
X22428Y14033D01*
X22416Y14047D01*
X22402Y14059D01*
X22386Y14069D01*
X22368Y14075D01*
X22354Y14078D01*
X22334Y14080D01*
X22310Y14081D01*
X22280Y14081D01*
X22097Y14081D01*
X22097Y13825D01*
X22097Y13825D01*
X22282Y13825D01*
X22325Y13828D01*
X22329Y13744D01*
X22280Y13741D01*
X22097Y13741D01*
X22097Y13450D01*
X22002Y13450D01*
X22002Y13450D01*
X22516Y13450D02*
X22772Y14117D01*
X22840Y14091D01*
X22832Y14056D01*
X22824Y14022D01*
X22813Y13988D01*
X22801Y13954D01*
X22723Y13744D01*
X22723Y13744D01*
X22966Y13744D01*
X22891Y13942D01*
X22875Y13985D01*
X22861Y14024D01*
X22849Y14060D01*
X22840Y14091D01*
X22772Y14117D01*
X22791Y14166D01*
X22893Y14166D01*
X23186Y13450D01*
X23078Y13450D01*
X22995Y13667D01*
X22696Y13667D01*
X22617Y13450D01*
X22516Y13450D01*
X22516Y13450D01*
X23688Y13534D02*
X23688Y13450D01*
X23215Y13450D01*
X23215Y13466D01*
X23217Y13481D01*
X23220Y13496D01*
X23225Y13511D01*
X23236Y13535D01*
X23249Y13559D01*
X23265Y13583D01*
X23283Y13606D01*
X23305Y13631D01*
X23332Y13657D01*
X23363Y13685D01*
X23398Y13715D01*
X23452Y13760D01*
X23496Y13800D01*
X23531Y13836D01*
X23556Y13866D01*
X23574Y13894D01*
X23587Y13921D01*
X23594Y13947D01*
X23597Y13972D01*
X23595Y13997D01*
X23588Y14020D01*
X23576Y14041D01*
X23560Y14060D01*
X23539Y14076D01*
X23517Y14087D01*
X23491Y14094D01*
X23462Y14096D01*
X23432Y14094D01*
X23405Y14086D01*
X23381Y14075D01*
X23361Y14058D01*
X23344Y14037D01*
X23332Y14012D01*
X23325Y13984D01*
X23322Y13952D01*
X23232Y13962D01*
X23239Y14009D01*
X23254Y14051D01*
X23274Y14086D01*
X23301Y14116D01*
X23334Y14139D01*
X23372Y14156D01*
X23416Y14165D01*
X23464Y14169D01*
X23513Y14165D01*
X23556Y14154D01*
X23594Y14137D01*
X23627Y14112D01*
X23653Y14081D01*
X23672Y14048D01*
X23683Y14011D01*
X23687Y13970D01*
X23686Y13949D01*
X23683Y13927D01*
X23677Y13906D01*
X23670Y13886D01*
X23659Y13865D01*
X23646Y13843D01*
X23630Y13821D01*
X23611Y13798D01*
X23588Y13773D01*
X23557Y13744D01*
X23520Y13710D01*
X23476Y13672D01*
X23440Y13642D01*
X23411Y13616D01*
X23389Y13597D01*
X23374Y13582D01*
X23363Y13570D01*
X23354Y13558D01*
X23345Y13546D01*
X23337Y13534D01*
X23688Y13534D01*
X23688Y13534D01*
X22102Y5650D02*
X22102Y6366D01*
X22372Y6366D01*
X22406Y6365D01*
X22435Y6364D01*
X22460Y6362D01*
X22481Y6359D01*
X22506Y6354D01*
X22530Y6346D01*
X22551Y6337D01*
X22569Y6326D01*
X22586Y6312D01*
X22602Y6296D01*
X22615Y6277D01*
X22627Y6256D01*
X22636Y6234D01*
X22643Y6210D01*
X22647Y6185D01*
X22649Y6159D01*
X22645Y6115D01*
X22634Y6074D01*
X22616Y6038D01*
X22590Y6004D01*
X22556Y5977D01*
X22509Y5957D01*
X22451Y5945D01*
X22429Y5944D01*
X22425Y6028D01*
X22460Y6034D01*
X22490Y6045D01*
X22512Y6060D01*
X22529Y6078D01*
X22541Y6101D01*
X22548Y6127D01*
X22551Y6156D01*
X22549Y6178D01*
X22545Y6198D01*
X22538Y6216D01*
X22528Y6233D01*
X22516Y6247D01*
X22502Y6259D01*
X22486Y6269D01*
X22468Y6275D01*
X22454Y6278D01*
X22434Y6280D01*
X22410Y6281D01*
X22380Y6281D01*
X22197Y6281D01*
X22197Y6025D01*
X22197Y6025D01*
X22382Y6025D01*
X22425Y6028D01*
X22429Y5944D01*
X22380Y5941D01*
X22197Y5941D01*
X22197Y5650D01*
X22102Y5650D01*
X22102Y5650D01*
X22616Y5650D02*
X22872Y6317D01*
X22940Y6291D01*
X22932Y6256D01*
X22924Y6222D01*
X22913Y6188D01*
X22901Y6154D01*
X22823Y5944D01*
X22823Y5944D01*
X23066Y5944D01*
X22991Y6142D01*
X22975Y6185D01*
X22961Y6224D01*
X22949Y6260D01*
X22940Y6291D01*
X22872Y6317D01*
X22891Y6366D01*
X22993Y6366D01*
X23286Y5650D01*
X23178Y5650D01*
X23095Y5867D01*
X22796Y5867D01*
X22717Y5650D01*
X22616Y5650D01*
X22616Y5650D01*
X23782Y6191D02*
X23695Y6184D01*
X23688Y6208D01*
X23681Y6228D01*
X23672Y6245D01*
X23662Y6259D01*
X23643Y6275D01*
X23622Y6287D01*
X23599Y6294D01*
X23574Y6296D01*
X23553Y6295D01*
X23534Y6291D01*
X23517Y6283D01*
X23500Y6273D01*
X23480Y6256D01*
X23463Y6236D01*
X23448Y6212D01*
X23435Y6185D01*
X23424Y6153D01*
X23416Y6114D01*
X23412Y6070D01*
X23410Y6019D01*
X23456Y5983D01*
X23447Y5971D01*
X23434Y5945D01*
X23426Y5915D01*
X23423Y5882D01*
X23423Y5882D01*
X23425Y5859D01*
X23428Y5837D01*
X23434Y5816D01*
X23443Y5795D01*
X23453Y5776D01*
X23466Y5758D01*
X23480Y5744D01*
X23497Y5732D01*
X23514Y5722D01*
X23532Y5715D01*
X23551Y5711D01*
X23569Y5710D01*
X23596Y5713D01*
X23621Y5721D01*
X23644Y5735D01*
X23665Y5755D01*
X23683Y5779D01*
X23695Y5808D01*
X23703Y5840D01*
X23705Y5877D01*
X23703Y5912D01*
X23695Y5943D01*
X23683Y5971D01*
X23666Y5994D01*
X23645Y6013D01*
X23621Y6026D01*
X23595Y6034D01*
X23566Y6037D01*
X23537Y6034D01*
X23511Y6026D01*
X23487Y6013D01*
X23465Y5994D01*
X23456Y5983D01*
X23410Y6019D01*
X23427Y6042D01*
X23445Y6061D01*
X23465Y6078D01*
X23487Y6091D01*
X23511Y6101D01*
X23534Y6108D01*
X23559Y6113D01*
X23584Y6114D01*
X23626Y6110D01*
X23665Y6098D01*
X23701Y6078D01*
X23733Y6050D01*
X23760Y6015D01*
X23780Y5976D01*
X23791Y5931D01*
X23795Y5882D01*
X23793Y5849D01*
X23788Y5817D01*
X23779Y5787D01*
X23766Y5757D01*
X23750Y5730D01*
X23731Y5706D01*
X23710Y5686D01*
X23686Y5669D01*
X23660Y5655D01*
X23632Y5645D01*
X23602Y5640D01*
X23571Y5638D01*
X23519Y5643D01*
X23471Y5658D01*
X23429Y5683D01*
X23392Y5719D01*
X23361Y5766D01*
X23340Y5826D01*
X23327Y5899D01*
X23322Y5985D01*
X23327Y6082D01*
X23342Y6164D01*
X23365Y6233D01*
X23399Y6287D01*
X23435Y6323D01*
X23478Y6348D01*
X23525Y6364D01*
X23579Y6369D01*
X23620Y6366D01*
X23656Y6357D01*
X23689Y6342D01*
X23718Y6321D01*
X23742Y6295D01*
X23761Y6265D01*
X23774Y6230D01*
X23782Y6191D01*
X23782Y6191D01*
X22212Y21631D02*
X22212Y21715D01*
X22515Y21715D01*
X22515Y21450D01*
X22480Y21424D01*
X22444Y21401D01*
X22408Y21382D01*
X22371Y21366D01*
X22334Y21354D01*
X22296Y21345D01*
X22258Y21340D01*
X22219Y21338D01*
X22167Y21341D01*
X22118Y21349D01*
X22072Y21363D01*
X22027Y21383D01*
X21987Y21408D01*
X21952Y21438D01*
X21922Y21473D01*
X21897Y21514D01*
X21878Y21558D01*
X21864Y21604D01*
X21856Y21653D01*
X21853Y21704D01*
X21856Y21756D01*
X21864Y21806D01*
X21878Y21853D01*
X21897Y21900D01*
X21921Y21942D01*
X21950Y21978D01*
X21984Y22009D01*
X22023Y22034D01*
X22065Y22053D01*
X22111Y22067D01*
X22160Y22075D01*
X22212Y22078D01*
X22250Y22076D01*
X22286Y22072D01*
X22320Y22064D01*
X22352Y22053D01*
X22382Y22039D01*
X22408Y22023D01*
X22431Y22004D01*
X22450Y21983D01*
X22467Y21959D01*
X22482Y21931D01*
X22494Y21900D01*
X22505Y21866D01*
X22419Y21842D01*
X22411Y21868D01*
X22401Y21891D01*
X22391Y21911D01*
X22379Y21928D01*
X22366Y21943D01*
X22350Y21956D01*
X22332Y21968D01*
X22311Y21978D01*
X22288Y21986D01*
X22264Y21992D01*
X22239Y21996D01*
X22212Y21997D01*
X22181Y21996D01*
X22152Y21992D01*
X22125Y21986D01*
X22100Y21977D01*
X22077Y21967D01*
X22057Y21954D01*
X22039Y21941D01*
X22023Y21925D01*
X22010Y21909D01*
X21998Y21891D01*
X21987Y21873D01*
X21978Y21854D01*
X21966Y21820D01*
X21958Y21785D01*
X21953Y21748D01*
X21951Y21710D01*
X21953Y21664D01*
X21959Y21622D01*
X21969Y21584D01*
X21984Y21550D01*
X22002Y21520D01*
X22024Y21494D01*
X22050Y21472D01*
X22080Y21454D01*
X22112Y21441D01*
X22145Y21431D01*
X22179Y21425D01*
X22214Y21423D01*
X22244Y21425D01*
X22274Y21429D01*
X22304Y21437D01*
X22334Y21447D01*
X22361Y21459D01*
X22385Y21471D01*
X22406Y21484D01*
X22423Y21497D01*
X22423Y21631D01*
X22212Y21631D01*
X22212Y21631D01*
X22654Y21350D02*
X22654Y22066D01*
X22751Y22066D01*
X23127Y21504D01*
X23127Y22066D01*
X23218Y22066D01*
X23218Y21350D01*
X23121Y21350D01*
X22745Y21913D01*
X22745Y21350D01*
X22654Y21350D01*
X22654Y21350D01*
X23377Y21350D02*
X23377Y22066D01*
X23622Y22066D01*
X23622Y21981D01*
X23472Y21981D01*
X23472Y21434D01*
X23472Y21434D01*
X23625Y21434D01*
X23658Y21435D01*
X23688Y21438D01*
X23714Y21442D01*
X23736Y21448D01*
X23755Y21455D01*
X23772Y21464D01*
X23787Y21473D01*
X23800Y21485D01*
X23816Y21503D01*
X23830Y21524D01*
X23842Y21548D01*
X23853Y21575D01*
X23861Y21605D01*
X23867Y21638D01*
X23870Y21674D01*
X23871Y21713D01*
X23869Y21766D01*
X23862Y21813D01*
X23851Y21852D01*
X23834Y21886D01*
X23815Y21914D01*
X23794Y21936D01*
X23770Y21954D01*
X23745Y21967D01*
X23723Y21973D01*
X23695Y21978D01*
X23662Y21980D01*
X23622Y21981D01*
X23622Y22066D01*
X23624Y22066D01*
X23663Y22065D01*
X23697Y22063D01*
X23727Y22060D01*
X23751Y22056D01*
X23781Y22047D01*
X23808Y22036D01*
X23833Y22021D01*
X23856Y22004D01*
X23883Y21979D01*
X23906Y21950D01*
X23925Y21918D01*
X23941Y21882D01*
X23953Y21843D01*
X23962Y21802D01*
X23967Y21758D01*
X23969Y21712D01*
X23968Y21672D01*
X23964Y21635D01*
X23958Y21600D01*
X23950Y21567D01*
X23940Y21537D01*
X23928Y21510D01*
X23915Y21485D01*
X23901Y21463D01*
X23886Y21444D01*
X23870Y21426D01*
X23853Y21411D01*
X23836Y21398D01*
X23817Y21387D01*
X23797Y21377D01*
X23775Y21369D01*
X23750Y21362D01*
X23725Y21357D01*
X23697Y21353D01*
X23667Y21351D01*
X23635Y21350D01*
X23377Y21350D01*
X23377Y21350D01*
X21952Y9350D02*
X21952Y10066D01*
X22222Y10066D01*
X22256Y10065D01*
X22285Y10064D01*
X22310Y10062D01*
X22331Y10059D01*
X22356Y10054D01*
X22380Y10046D01*
X22401Y10037D01*
X22419Y10026D01*
X22436Y10012D01*
X22452Y9996D01*
X22465Y9977D01*
X22477Y9956D01*
X22486Y9934D01*
X22493Y9910D01*
X22497Y9885D01*
X22499Y9859D01*
X22495Y9815D01*
X22484Y9774D01*
X22466Y9738D01*
X22440Y9704D01*
X22406Y9677D01*
X22359Y9657D01*
X22301Y9645D01*
X22279Y9644D01*
X22275Y9728D01*
X22310Y9734D01*
X22340Y9745D01*
X22362Y9760D01*
X22379Y9778D01*
X22391Y9801D01*
X22398Y9827D01*
X22401Y9856D01*
X22399Y9878D01*
X22395Y9898D01*
X22388Y9916D01*
X22378Y9933D01*
X22366Y9947D01*
X22352Y9959D01*
X22336Y9969D01*
X22318Y9975D01*
X22304Y9978D01*
X22284Y9980D01*
X22260Y9981D01*
X22230Y9981D01*
X22047Y9981D01*
X22047Y9725D01*
X22047Y9725D01*
X22232Y9725D01*
X22275Y9728D01*
X22279Y9644D01*
X22230Y9641D01*
X22047Y9641D01*
X22047Y9350D01*
X21952Y9350D01*
X21952Y9350D01*
X22466Y9350D02*
X22722Y10017D01*
X22790Y9991D01*
X22782Y9956D01*
X22774Y9922D01*
X22763Y9888D01*
X22751Y9854D01*
X22673Y9644D01*
X22673Y9644D01*
X22916Y9644D01*
X22841Y9842D01*
X22825Y9885D01*
X22811Y9924D01*
X22799Y9960D01*
X22790Y9991D01*
X22722Y10017D01*
X22741Y10066D01*
X22843Y10066D01*
X23136Y9350D01*
X23028Y9350D01*
X22945Y9567D01*
X22646Y9567D01*
X22567Y9350D01*
X22466Y9350D01*
X22466Y9350D01*
X23458Y9350D02*
X23458Y9521D01*
X23147Y9521D01*
X23147Y9602D01*
X23402Y9964D01*
X23458Y9925D01*
X23234Y9602D01*
X23458Y9602D01*
X23458Y9602D01*
X23458Y9925D01*
X23402Y9964D01*
X23474Y10066D01*
X23546Y10066D01*
X23546Y9602D01*
X23643Y9602D01*
X23643Y9521D01*
X23546Y9521D01*
X23546Y9350D01*
X23458Y9350D01*
X23458Y9350D01*
X2075Y7648D02*
X1359Y7648D01*
X1359Y7917D01*
X1361Y7956D01*
X1365Y7991D01*
X1371Y8022D01*
X1381Y8048D01*
X1393Y8072D01*
X1408Y8093D01*
X1427Y8111D01*
X1448Y8126D01*
X1471Y8138D01*
X1494Y8147D01*
X1518Y8152D01*
X1542Y8154D01*
X1565Y8153D01*
X1587Y8148D01*
X1608Y8140D01*
X1629Y8129D01*
X1648Y8115D01*
X1665Y8098D01*
X1681Y8078D01*
X1694Y8054D01*
X1762Y8026D01*
X1756Y8013D01*
X1751Y7993D01*
X1747Y7969D01*
X1745Y7941D01*
X1744Y7908D01*
X1744Y7743D01*
X1991Y7743D01*
X1991Y7743D01*
X1991Y7921D01*
X1990Y7942D01*
X1990Y7960D01*
X1989Y7975D01*
X1987Y7986D01*
X1984Y8001D01*
X1979Y8016D01*
X1974Y8029D01*
X1968Y8040D01*
X1960Y8051D01*
X1951Y8060D01*
X1940Y8069D01*
X1928Y8076D01*
X1914Y8083D01*
X1900Y8087D01*
X1884Y8090D01*
X1867Y8091D01*
X1848Y8089D01*
X1830Y8085D01*
X1813Y8079D01*
X1798Y8070D01*
X1784Y8059D01*
X1773Y8046D01*
X1763Y8030D01*
X1762Y8026D01*
X1694Y8054D01*
X1637Y8020D01*
X1628Y8032D01*
X1616Y8043D01*
X1603Y8051D01*
X1588Y8056D01*
X1572Y8060D01*
X1554Y8061D01*
X1536Y8060D01*
X1520Y8057D01*
X1505Y8051D01*
X1491Y8044D01*
X1478Y8034D01*
X1468Y8023D01*
X1460Y8010D01*
X1454Y7995D01*
X1449Y7976D01*
X1446Y7952D01*
X1444Y7922D01*
X1444Y7886D01*
X1444Y7743D01*
X1660Y7743D01*
X1660Y7743D01*
X1660Y7898D01*
X1659Y7927D01*
X1658Y7952D01*
X1655Y7972D01*
X1652Y7988D01*
X1645Y8005D01*
X1637Y8020D01*
X1694Y8054D01*
X1705Y8085D01*
X1720Y8111D01*
X1738Y8135D01*
X1759Y8154D01*
X1783Y8169D01*
X1809Y8180D01*
X1837Y8187D01*
X1867Y8189D01*
X1892Y8187D01*
X1916Y8183D01*
X1939Y8177D01*
X1961Y8168D01*
X1981Y8156D01*
X1999Y8144D01*
X2015Y8130D01*
X2028Y8115D01*
X2039Y8098D01*
X2048Y8080D01*
X2056Y8059D01*
X2063Y8037D01*
X2068Y8012D01*
X2072Y7984D01*
X2074Y7954D01*
X2075Y7921D01*
X2075Y7648D01*
X2075Y7648D01*
X2075Y8315D02*
X1359Y8315D01*
X1359Y8410D01*
X1991Y8410D01*
X1991Y8763D01*
X2075Y8763D01*
X2075Y8315D01*
X2075Y8315D01*
X1359Y9345D02*
X1359Y9440D01*
X1773Y9440D01*
X1824Y9438D01*
X1870Y9434D01*
X1910Y9426D01*
X1944Y9415D01*
X1974Y9401D01*
X2002Y9381D01*
X2026Y9357D01*
X2047Y9327D01*
X2065Y9293D01*
X2077Y9254D01*
X2085Y9209D01*
X2087Y9160D01*
X2085Y9112D01*
X2079Y9069D01*
X2068Y9030D01*
X2053Y8995D01*
X2033Y8966D01*
X2010Y8941D01*
X1983Y8920D01*
X1952Y8904D01*
X1916Y8892D01*
X1875Y8884D01*
X1827Y8878D01*
X1773Y8877D01*
X1359Y8877D01*
X1359Y8972D01*
X1772Y8972D01*
X1816Y8973D01*
X1853Y8976D01*
X1885Y8981D01*
X1910Y8989D01*
X1931Y8999D01*
X1949Y9012D01*
X1965Y9029D01*
X1978Y9048D01*
X1988Y9071D01*
X1996Y9095D01*
X2000Y9122D01*
X2002Y9152D01*
X1999Y9200D01*
X1990Y9241D01*
X1975Y9275D01*
X1954Y9301D01*
X1925Y9320D01*
X1885Y9334D01*
X1834Y9342D01*
X1772Y9345D01*
X1359Y9345D01*
X1359Y9345D01*
X2075Y9599D02*
X1359Y9599D01*
X1359Y10117D01*
X1444Y10117D01*
X1444Y9694D01*
X1663Y9694D01*
X1663Y10090D01*
X1747Y10090D01*
X1747Y9694D01*
X1991Y9694D01*
X1991Y10134D01*
X2075Y10134D01*
X2075Y9599D01*
X2075Y9599D01*
X2100Y19479D02*
X1384Y19479D01*
X1384Y19796D01*
X1385Y19841D01*
X1389Y19880D01*
X1395Y19914D01*
X1403Y19942D01*
X1415Y19965D01*
X1430Y19986D01*
X1449Y20005D01*
X1472Y20021D01*
X1497Y20034D01*
X1523Y20043D01*
X1551Y20049D01*
X1579Y20051D01*
X1616Y20048D01*
X1650Y20039D01*
X1680Y20023D01*
X1708Y20002D01*
X1732Y19974D01*
X1751Y19939D01*
X1765Y19897D01*
X1770Y19874D01*
X1693Y19858D01*
X1687Y19879D01*
X1679Y19896D01*
X1669Y19911D01*
X1657Y19924D01*
X1644Y19934D01*
X1629Y19943D01*
X1613Y19948D01*
X1597Y19952D01*
X1579Y19953D01*
X1555Y19951D01*
X1533Y19944D01*
X1513Y19932D01*
X1496Y19916D01*
X1482Y19895D01*
X1471Y19869D01*
X1465Y19837D01*
X1463Y19800D01*
X1463Y19573D01*
X1700Y19573D01*
X1700Y19573D01*
X1700Y19777D01*
X1699Y19808D01*
X1697Y19835D01*
X1693Y19858D01*
X1770Y19874D01*
X1774Y19849D01*
X1783Y19867D01*
X1792Y19882D01*
X1801Y19895D01*
X1810Y19906D01*
X1830Y19927D01*
X1853Y19947D01*
X1878Y19966D01*
X1905Y19985D01*
X2100Y20109D01*
X2100Y19990D01*
X1951Y19896D01*
X1921Y19876D01*
X1894Y19858D01*
X1871Y19842D01*
X1852Y19827D01*
X1837Y19814D01*
X1823Y19802D01*
X1813Y19790D01*
X1805Y19779D01*
X1798Y19768D01*
X1793Y19758D01*
X1789Y19747D01*
X1786Y19736D01*
X1784Y19727D01*
X1783Y19715D01*
X1782Y19700D01*
X1782Y19683D01*
X1782Y19573D01*
X2100Y19573D01*
X2100Y19479D01*
X2100Y19479D01*
X2100Y20201D02*
X1384Y20201D01*
X1384Y20719D01*
X1469Y20719D01*
X1469Y20296D01*
X1688Y20296D01*
X1688Y20692D01*
X1772Y20692D01*
X1772Y20296D01*
X2016Y20296D01*
X2016Y20735D01*
X2100Y20735D01*
X2100Y20201D01*
X2100Y20201D01*
X2100Y20866D02*
X1384Y20866D01*
X1384Y21111D01*
X1469Y21111D01*
X1469Y20961D01*
X2016Y20961D01*
X2016Y20961D01*
X2016Y21114D01*
X2015Y21147D01*
X2012Y21177D01*
X2008Y21203D01*
X2002Y21225D01*
X1995Y21244D01*
X1986Y21261D01*
X1977Y21276D01*
X1965Y21289D01*
X1947Y21305D01*
X1926Y21319D01*
X1902Y21331D01*
X1875Y21342D01*
X1845Y21350D01*
X1812Y21356D01*
X1776Y21359D01*
X1737Y21360D01*
X1684Y21358D01*
X1637Y21351D01*
X1598Y21340D01*
X1564Y21324D01*
X1536Y21304D01*
X1514Y21283D01*
X1496Y21259D01*
X1483Y21234D01*
X1477Y21212D01*
X1472Y21184D01*
X1470Y21151D01*
X1469Y21111D01*
X1384Y21111D01*
X1384Y21113D01*
X1385Y21152D01*
X1387Y21187D01*
X1390Y21216D01*
X1394Y21240D01*
X1403Y21270D01*
X1414Y21297D01*
X1429Y21322D01*
X1446Y21345D01*
X1471Y21372D01*
X1500Y21395D01*
X1532Y21414D01*
X1568Y21430D01*
X1607Y21442D01*
X1648Y21451D01*
X1692Y21456D01*
X1738Y21458D01*
X1778Y21457D01*
X1815Y21453D01*
X1850Y21447D01*
X1883Y21439D01*
X1913Y21429D01*
X1940Y21417D01*
X1965Y21404D01*
X1987Y21390D01*
X2006Y21375D01*
X2024Y21359D01*
X2039Y21342D01*
X2052Y21325D01*
X2063Y21306D01*
X2073Y21286D01*
X2081Y21264D01*
X2088Y21240D01*
X2093Y21214D01*
X2097Y21186D01*
X2099Y21156D01*
X2100Y21125D01*
X2100Y20866D01*
X2100Y20866D01*
X22052Y17450D02*
X22052Y18166D01*
X22322Y18166D01*
X22356Y18165D01*
X22385Y18164D01*
X22410Y18162D01*
X22431Y18159D01*
X22456Y18154D01*
X22480Y18146D01*
X22501Y18137D01*
X22519Y18126D01*
X22536Y18112D01*
X22552Y18096D01*
X22565Y18077D01*
X22577Y18056D01*
X22586Y18034D01*
X22593Y18010D01*
X22597Y17985D01*
X22599Y17959D01*
X22595Y17915D01*
X22584Y17874D01*
X22566Y17838D01*
X22540Y17804D01*
X22506Y17777D01*
X22459Y17757D01*
X22401Y17745D01*
X22379Y17744D01*
X22375Y17828D01*
X22410Y17834D01*
X22440Y17845D01*
X22462Y17860D01*
X22479Y17878D01*
X22491Y17901D01*
X22498Y17927D01*
X22501Y17956D01*
X22499Y17978D01*
X22495Y17998D01*
X22488Y18016D01*
X22478Y18033D01*
X22466Y18047D01*
X22452Y18059D01*
X22436Y18069D01*
X22418Y18075D01*
X22404Y18078D01*
X22384Y18080D01*
X22360Y18081D01*
X22330Y18081D01*
X22147Y18081D01*
X22147Y17825D01*
X22147Y17825D01*
X22332Y17825D01*
X22375Y17828D01*
X22379Y17744D01*
X22330Y17741D01*
X22147Y17741D01*
X22147Y17450D01*
X22052Y17450D01*
X22052Y17450D01*
X22566Y17450D02*
X22822Y18117D01*
X22890Y18091D01*
X22882Y18056D01*
X22874Y18022D01*
X22863Y17988D01*
X22851Y17954D01*
X22773Y17744D01*
X22773Y17744D01*
X23016Y17744D01*
X22941Y17942D01*
X22925Y17985D01*
X22911Y18024D01*
X22899Y18060D01*
X22890Y18091D01*
X22822Y18117D01*
X22841Y18166D01*
X22943Y18166D01*
X23236Y17450D01*
X23128Y17450D01*
X23045Y17667D01*
X22746Y17667D01*
X22667Y17450D01*
X22566Y17450D01*
X22566Y17450D01*
X23607Y17450D02*
X23519Y17450D01*
X23519Y18010D01*
X23502Y17995D01*
X23483Y17980D01*
X23461Y17965D01*
X23436Y17950D01*
X23411Y17935D01*
X23387Y17923D01*
X23365Y17913D01*
X23344Y17904D01*
X23344Y17989D01*
X23379Y18007D01*
X23413Y18027D01*
X23444Y18049D01*
X23473Y18073D01*
X23498Y18098D01*
X23520Y18122D01*
X23537Y18145D01*
X23551Y18169D01*
X23607Y18169D01*
X23607Y17450D01*
X23607Y17450D01*
X25575Y22868D02*
X24666Y22868D01*
X24666Y22988D01*
X25468Y22988D01*
X25468Y23436D01*
X25575Y23436D01*
X25575Y22868D01*
X25575Y22868D01*
X25575Y23479D02*
X24728Y23805D01*
X24761Y23891D01*
X24805Y23881D01*
X24849Y23870D01*
X24892Y23857D01*
X24935Y23842D01*
X25202Y23742D01*
X25202Y23742D01*
X25202Y24050D01*
X24950Y23955D01*
X24895Y23935D01*
X24845Y23917D01*
X24801Y23903D01*
X24761Y23891D01*
X24728Y23805D01*
X24666Y23829D01*
X24666Y23958D01*
X25575Y24330D01*
X25575Y24193D01*
X25300Y24087D01*
X25300Y23707D01*
X25575Y23607D01*
X25575Y23479D01*
X25575Y23479D01*
X25575Y24423D02*
X24666Y24423D01*
X24666Y24604D01*
X25310Y24819D01*
X25352Y24833D01*
X25388Y24845D01*
X25419Y24855D01*
X25444Y24862D01*
X25416Y24871D01*
X25383Y24882D01*
X25344Y24895D01*
X25298Y24911D01*
X24666Y25128D01*
X24666Y25290D01*
X25575Y25290D01*
X25575Y25174D01*
X24814Y25174D01*
X25575Y24910D01*
X25575Y24802D01*
X24801Y24539D01*
X25575Y24539D01*
X25575Y24423D01*
X25575Y24423D01*
X25575Y25484D02*
X24666Y25484D01*
X24666Y25827D01*
X24666Y25870D01*
X24668Y25907D01*
X24671Y25939D01*
X24675Y25966D01*
X24681Y25998D01*
X24691Y26027D01*
X24703Y26054D01*
X24717Y26078D01*
X24734Y26099D01*
X24755Y26119D01*
X24778Y26136D01*
X24805Y26151D01*
X24834Y26163D01*
X24864Y26171D01*
X24896Y26177D01*
X24929Y26178D01*
X24985Y26174D01*
X25036Y26160D01*
X25083Y26137D01*
X25125Y26104D01*
X25160Y26060D01*
X25185Y26001D01*
X25200Y25927D01*
X25202Y25900D01*
X25095Y25894D01*
X25087Y25939D01*
X25074Y25977D01*
X25055Y26005D01*
X25031Y26027D01*
X25002Y26042D01*
X24970Y26051D01*
X24933Y26054D01*
X24905Y26052D01*
X24880Y26047D01*
X24856Y26038D01*
X24835Y26025D01*
X24816Y26010D01*
X24801Y25992D01*
X24789Y25972D01*
X24781Y25949D01*
X24778Y25931D01*
X24775Y25906D01*
X24774Y25875D01*
X24773Y25837D01*
X24773Y25605D01*
X25098Y25605D01*
X25098Y25605D01*
X25098Y25840D01*
X25095Y25894D01*
X25202Y25900D01*
X25205Y25838D01*
X25205Y25605D01*
X25575Y25605D01*
X25575Y25484D01*
X25575Y25484D01*
X25575Y26585D02*
X24666Y26585D01*
X24666Y26926D01*
X24668Y26976D01*
X24673Y27020D01*
X24681Y27059D01*
X24694Y27093D01*
X24709Y27123D01*
X24729Y27149D01*
X24752Y27172D01*
X24778Y27192D01*
X24807Y27207D01*
X24837Y27219D01*
X24867Y27225D01*
X24898Y27227D01*
X24927Y27225D01*
X24955Y27220D01*
X24982Y27210D01*
X25008Y27196D01*
X25033Y27178D01*
X25055Y27156D01*
X25074Y27130D01*
X25091Y27100D01*
X25177Y27065D01*
X25170Y27049D01*
X25164Y27023D01*
X25159Y26992D01*
X25156Y26956D01*
X25155Y26916D01*
X25155Y26705D01*
X25468Y26705D01*
X25468Y26705D01*
X25468Y26932D01*
X25467Y26959D01*
X25467Y26981D01*
X25465Y27000D01*
X25463Y27014D01*
X25459Y27033D01*
X25453Y27052D01*
X25447Y27068D01*
X25439Y27083D01*
X25429Y27096D01*
X25417Y27108D01*
X25404Y27119D01*
X25388Y27129D01*
X25371Y27137D01*
X25352Y27142D01*
X25333Y27146D01*
X25311Y27147D01*
X25287Y27145D01*
X25264Y27140D01*
X25243Y27132D01*
X25223Y27121D01*
X25206Y27107D01*
X25191Y27090D01*
X25179Y27070D01*
X25177Y27065D01*
X25091Y27100D01*
X25019Y27057D01*
X25007Y27073D01*
X24992Y27086D01*
X24975Y27096D01*
X24956Y27103D01*
X24936Y27108D01*
X24913Y27109D01*
X24891Y27108D01*
X24870Y27104D01*
X24851Y27097D01*
X24833Y27087D01*
X24817Y27075D01*
X24804Y27061D01*
X24794Y27044D01*
X24786Y27025D01*
X24780Y27002D01*
X24776Y26971D01*
X24774Y26932D01*
X24773Y26887D01*
X24773Y26705D01*
X25048Y26705D01*
X25048Y26705D01*
X25048Y26902D01*
X25047Y26939D01*
X25045Y26971D01*
X25042Y26996D01*
X25037Y27017D01*
X25029Y27038D01*
X25019Y27057D01*
X25091Y27100D01*
X25106Y27139D01*
X25124Y27173D01*
X25147Y27203D01*
X25174Y27227D01*
X25204Y27247D01*
X25237Y27260D01*
X25273Y27269D01*
X25311Y27272D01*
X25343Y27270D01*
X25373Y27265D01*
X25402Y27256D01*
X25430Y27245D01*
X25456Y27230D01*
X25479Y27214D01*
X25498Y27197D01*
X25515Y27178D01*
X25529Y27157D01*
X25541Y27133D01*
X25551Y27107D01*
X25560Y27078D01*
X25566Y27047D01*
X25571Y27012D01*
X25574Y26973D01*
X25575Y26932D01*
X25575Y26585D01*
X25575Y26585D01*
X25132Y27401D02*
X25025Y27408D01*
X24930Y27431D01*
X24848Y27469D01*
X24778Y27522D01*
X24722Y27587D01*
X24682Y27661D01*
X24658Y27744D01*
X24650Y27836D01*
X24654Y27897D01*
X24665Y27956D01*
X24684Y28011D01*
X24710Y28063D01*
X24743Y28110D01*
X24782Y28152D01*
X24827Y28187D01*
X24878Y28217D01*
X24933Y28240D01*
X24992Y28257D01*
X25055Y28267D01*
X25122Y28270D01*
X25189Y28266D01*
X25253Y28256D01*
X25313Y28239D01*
X25369Y28214D01*
X25420Y28183D01*
X25465Y28147D01*
X25503Y28104D01*
X25534Y28056D01*
X25559Y28004D01*
X25576Y27950D01*
X25582Y27918D01*
X25482Y27899D01*
X25464Y27958D01*
X25434Y28011D01*
X25392Y28058D01*
X25339Y28097D01*
X25277Y28124D01*
X25204Y28140D01*
X25121Y28146D01*
X25067Y28144D01*
X25017Y28137D01*
X24970Y28125D01*
X24927Y28108D01*
X24888Y28087D01*
X24854Y28062D01*
X24824Y28033D01*
X24799Y27999D01*
X24779Y27961D01*
X24765Y27922D01*
X24756Y27880D01*
X24753Y27836D01*
X24759Y27775D01*
X24775Y27718D01*
X24803Y27665D01*
X24841Y27617D01*
X24892Y27576D01*
X24958Y27548D01*
X25039Y27530D01*
X25134Y27525D01*
X25134Y27525D01*
X25212Y27530D01*
X25281Y27547D01*
X25341Y27574D01*
X25393Y27613D01*
X25434Y27660D01*
X25464Y27713D01*
X25482Y27771D01*
X25488Y27835D01*
X25482Y27899D01*
X25582Y27918D01*
X25587Y27893D01*
X25591Y27835D01*
X25587Y27773D01*
X25575Y27714D01*
X25556Y27658D01*
X25528Y27606D01*
X25495Y27558D01*
X25455Y27517D01*
X25410Y27482D01*
X25359Y27453D01*
X25305Y27430D01*
X25249Y27414D01*
X25191Y27404D01*
X25132Y27401D01*
X25132Y27401D01*
X25575Y28325D02*
X24728Y28650D01*
X24761Y28736D01*
X24805Y28727D01*
X24849Y28715D01*
X24892Y28702D01*
X24935Y28687D01*
X25202Y28587D01*
X25202Y28587D01*
X25202Y28896D01*
X24950Y28801D01*
X24895Y28780D01*
X24845Y28763D01*
X24801Y28748D01*
X24761Y28736D01*
X24728Y28650D01*
X24666Y28674D01*
X24666Y28804D01*
X25575Y29176D01*
X25575Y29039D01*
X25300Y28933D01*
X25300Y28553D01*
X25575Y28453D01*
X25575Y28325D01*
X25575Y28325D01*
X25575Y29274D02*
X24666Y29274D01*
X24666Y29677D01*
X24667Y29734D01*
X24672Y29784D01*
X24680Y29827D01*
X24690Y29862D01*
X24705Y29892D01*
X24724Y29919D01*
X24748Y29942D01*
X24777Y29963D01*
X24809Y29979D01*
X24842Y29991D01*
X24877Y29998D01*
X24914Y30001D01*
X24960Y29997D01*
X25003Y29985D01*
X25042Y29965D01*
X25077Y29938D01*
X25107Y29902D01*
X25131Y29858D01*
X25149Y29806D01*
X25155Y29776D01*
X25058Y29756D01*
X25050Y29782D01*
X25040Y29804D01*
X25028Y29823D01*
X25013Y29839D01*
X24996Y29853D01*
X24976Y29863D01*
X24956Y29871D01*
X24936Y29875D01*
X24914Y29877D01*
X24883Y29874D01*
X24855Y29865D01*
X24830Y29850D01*
X24808Y29830D01*
X24790Y29803D01*
X24777Y29769D01*
X24769Y29729D01*
X24766Y29682D01*
X24766Y29394D01*
X25067Y29394D01*
X25067Y29394D01*
X25067Y29653D01*
X25066Y29692D01*
X25063Y29726D01*
X25058Y29756D01*
X25155Y29776D01*
X25161Y29745D01*
X25173Y29767D01*
X25184Y29787D01*
X25195Y29803D01*
X25207Y29817D01*
X25232Y29843D01*
X25261Y29868D01*
X25293Y29893D01*
X25328Y29917D01*
X25575Y30075D01*
X25575Y29924D01*
X25386Y29804D01*
X25347Y29778D01*
X25314Y29755D01*
X25285Y29735D01*
X25261Y29717D01*
X25241Y29700D01*
X25224Y29684D01*
X25210Y29670D01*
X25200Y29656D01*
X25192Y29642D01*
X25185Y29628D01*
X25180Y29615D01*
X25176Y29601D01*
X25174Y29589D01*
X25172Y29574D01*
X25172Y29555D01*
X25171Y29534D01*
X25171Y29394D01*
X25575Y29394D01*
X25575Y29274D01*
X25575Y29274D01*
X25575Y30189D02*
X24666Y30189D01*
X24666Y30501D01*
X24773Y30501D01*
X24773Y30310D01*
X25468Y30310D01*
X25468Y30310D01*
X25468Y30504D01*
X25467Y30546D01*
X25464Y30584D01*
X25458Y30617D01*
X25451Y30645D01*
X25442Y30669D01*
X25431Y30691D01*
X25418Y30710D01*
X25404Y30726D01*
X25381Y30746D01*
X25354Y30764D01*
X25323Y30780D01*
X25289Y30793D01*
X25251Y30803D01*
X25209Y30811D01*
X25163Y30815D01*
X25114Y30817D01*
X25046Y30814D01*
X24988Y30805D01*
X24937Y30790D01*
X24894Y30770D01*
X24859Y30745D01*
X24830Y30718D01*
X24808Y30688D01*
X24792Y30656D01*
X24784Y30628D01*
X24778Y30593D01*
X24774Y30550D01*
X24773Y30501D01*
X24666Y30501D01*
X24666Y30502D01*
X24667Y30552D01*
X24669Y30596D01*
X24673Y30633D01*
X24679Y30664D01*
X24690Y30702D01*
X24704Y30737D01*
X24722Y30769D01*
X24744Y30798D01*
X24777Y30831D01*
X24813Y30860D01*
X24854Y30885D01*
X24899Y30905D01*
X24948Y30921D01*
X25001Y30932D01*
X25056Y30939D01*
X25115Y30941D01*
X25166Y30939D01*
X25213Y30935D01*
X25258Y30927D01*
X25299Y30917D01*
X25337Y30904D01*
X25372Y30889D01*
X25404Y30873D01*
X25431Y30855D01*
X25456Y30835D01*
X25478Y30815D01*
X25497Y30794D01*
X25514Y30772D01*
X25528Y30748D01*
X25540Y30722D01*
X25551Y30694D01*
X25559Y30663D01*
X25566Y30630D01*
X25571Y30595D01*
X25574Y30557D01*
X25575Y30517D01*
X25575Y30189D01*
X25575Y30189D01*
G37*
M02*